<?xml version="1.0" encoding="UTF-8"?>
<svg id="_レイヤー_1" data-name="レイヤー 1" xmlns="http://www.w3.org/2000/svg" version="1.1" viewBox="0 0 100 100">
  <defs>
    <style>
      .cls-1 {
        fill: #231815;
        stroke-width: 0px;
      }
    </style>
  </defs>
  <path class="cls-1" d="M50.8,30.96c-.9,10-1.8,15.4-9.4,26.8-3.3,4.9-7.7,8.6-12.5,11.5-2.1,1.2-4.1,1.8-5.7,1.8-2.7,0-5.3-1.4-7.4-3.7-4-3.4-5.8-8.7-5.8-15.2,0-9.7,4-18.2,12.4-25.6,8.6-7.7,18.9-11.5,30.5-11.5,9.1,0,16.8,2.1,23,6.2,9.4,6.3,14.1,15,14.1,26.3s-3.9,20.9-13.3,26.9c-20.6,13.1-32.3,10.2-32.3,10.2,20.6-6.5,35.7-20.2,35.7-36.8,0-8.6-2.6-16.1-8.5-21-5.1-4.3-13.2-7.3-22.9-6.4,0,0,2.5,6.5,2.1,10.5ZM28.1,59.96c4.2-2.6,8.8-6.8,12.3-14.6,3-7,3.6-15.4,3.2-24.2-2,.4-6.4,2.1-10.8,5.2-9.2,6.4-14.4,14.8-14.4,25.4,0,4.9,1.6,7.1,3.6,9.1.8.6,1.5.9,2.4.9.8,0,2-.5,3.6-1.8h.1Z"/>
</svg>