<?xml version="1.0" encoding="UTF-8"?>
<svg id="_レイヤー_1" data-name="レイヤー 1" xmlns="http://www.w3.org/2000/svg" version="1.1" viewBox="0 0 100 100">
  <defs>
    <style>
      .cls-1 {
        fill: #231815;
        stroke-width: 0px;
      }
    </style>
  </defs>
  <path class="cls-1" d="M72.82,71.55c-.8,0-2,.1-3.3.7-5.6,1.6-12.4,2.6-21,2.6-8,0-13.6-1-16.6-2.8-9.1-5.7-8.5-15.8-8.5-15.8-3.7,5.1-4.3,15.5,2.4,21.3,4,4,12.5,6,25,6,10.6,0,18.8-.8,24.6-2.4,2.5-.7,3.9-2,3.9-4,0-1-.3-2.1-1.1-3-1.4-1.6-3.3-2.6-5.4-2.6Z"/>
</svg>