<?xml version="1.0" encoding="UTF-8"?>
<svg id="_レイヤー_1" data-name="レイヤー 1" xmlns="http://www.w3.org/2000/svg" version="1.1" viewBox="0 0 100 100">
  <defs>
    <style>
      .cls-1 {
        fill: #231815;
        stroke-width: 0px;
      }
    </style>
  </defs>
  <path class="cls-1" d="M83.8,84.4c-1.5-2.1-3.2-3.1-5.2-3.1-.7,0-1.4,0-2.3.2-2.1.7-7.1,1.6-15.5,2.2-5.8-.3-9.1-3.1-8.7-8.5.5-7.8-1.9-11.8-7.9-11.8-3,0-5.6.6-6.6,1.3,15.2-14.4,24.6-23.3,27.5-25.6,1.3-1.1,1.7-2.3,1.5-3.6-.3-1.1-1.5-2.5-3.5-4.1-2.7-2.2-5.1-3.1-6.6-2.7-.8.1-1.7.6-2.5,1.5-.8,1.6-5.3,3.5-13.3,5.8-8,2.2-16.7,3.6-21.3.5,0,0-.1,5.1,3.8,8.7,2.7,2.7,6,3.7,9.2,2.3,2.59-1.1,11.04-5.57,21.59-10.75.64-.22,1.62-.52,1.41-.25-17.4,20.5-31.3,34.4-37.2,38.9-1.9,1.7-3,3.8-3,6.3,0,4,1.4,6.1,4,6.1,1.2,0,2.3-.6,3.3-2,2.6-4.1,5.2-7.2,7.6-9.4,3.5-3.9,7-6,10.5-6.5,2.2-.7,3.3-.6,4,.2.9,1,1.2,3.5.9,6.6-.4,10,3.9,15.3,14.6,15.5,7.4,0,13.4-.1,17.8-.2,4.4-.2,6.9-1.6,6.9-4.2,0-.9-.3-2.1-1-3.4ZM53.51,36.92s-.05.02,0,0h0Z"/>
</svg>