<?xml version="1.0" encoding="UTF-8"?>
<svg id="_レイヤー_1" data-name="レイヤー 1" xmlns="http://www.w3.org/2000/svg" version="1.1" viewBox="0 0 100 100">
  <defs>
    <style>
      .cls-1 {
        fill: #231815;
        stroke-width: 0px;
      }
    </style>
  </defs>
  <path class="cls-1" d="M30.57,79.23c-.4-1.8,0-3.7,1.3-5.4,1.7-2.3,4.4-3.9,7.6-4.5,5.7-.9,10.8.2,15.9,3.7,2.8,2.1,4.7,4.2,5.2,6,1.6-.3,3.6-1.6,6-3.8,3.9-3.7,5.8-7.9,5.8-12.5s-2.1-8.9-6.3-11.6c-3.8-2.4-6.6-3.1-11.7-3-3.2.1-8.4,1.8-13.5,5-5.2,3.3-9.6,8.9-13.8,16.5-1.3,2.4-2.8,3.8-4.7,4-2.4.2-4-1.7-4.3-5.8-.2-2.2.4-4.2,2-6l12.2-14.4c3.8-4.5,10.6-12.9,21.9-29.1-7,3.1-12.8,6.2-16.3,7.8-1.6.6-2.9.8-3.9.8-4.2,0-7.4-3.5-8.2-9.8,0,0,3.1,1.1,7.1.8,3.2-.2,9.7-1.6,18.2-4,2.4-.7,4.1-1.4,5-2.3.4-.7,1.4-.9,1.9-.9,1.8-.2,3.8.2,6.1,1.6,1.8,1.6,2.9,2.7,3.3,3.8.5,1.4,0,2.9-1.5,4.1-1.9,1.7-18.2,17.5-28.6,29.7,6.3-4.5,11.4-7,18.4-7.2,7.7-.2,13.6,1.2,18.4,4.7,5.2,3.9,7.9,8.9,7.9,15.2,0,6.9-2.9,12.9-8.7,17.8-6,5.6-12.6,8.4-19.5,8.8-7.2.4-13.1-.6-17.9-3-2.7-1.5-4.5-3.4-5-5.4-.2-.3-.3-.9-.3-1.6ZM39.27,74.33c-2.4.6-3.2,1.4-2.8,3.1.2,1.3,1.1,2.3,2.6,2.9,3.6,2.1,7.6,2.4,12.2,1.6-1-1.7-2.2-3.4-3.4-4.4-2.8-2.5-5.6-3.5-8.6-3.2Z"/>
</svg>