<?xml version="1.0" encoding="UTF-8"?>
<svg id="_レイヤー_1" data-name="レイヤー 1" xmlns="http://www.w3.org/2000/svg" version="1.1" viewBox="0 0 100 100">
  <defs>
    <style>
      .cls-1 {
        fill: #231815;
        stroke-width: 0px;
      }
    </style>
  </defs>
  <path class="cls-1" d="M48.79,33.07c-2.5,0-5.6.4-6.2.4,2.5-6,3.9-10.1,4-12.1.4-4.4-1.8-6.9-5.4-8.3-6-2.3-8.3,2.4-8.3,2.4,0,0,3.9,1.2,3.7,7.8-.4,3.5-1.4,7.4-2.5,11.3l-2.3.2-4.7.6c-4.7.7-7.7.9-9,.9-5.5.4-10.6-1.6-10.6-1.6-1.8,4.7,4.6,10.1,9.5,10.1.9.1,2.4-.1,4-.6,4.1-1.2,8.5-2.1,10.6-2.6-.5,1.6-3.2,6-5.9,10.8-6.4,10.5-9.6,14.4-14.1,19.9-2.5,3-4.5,5.1-4.6,7.5-.4,3.7.8,5.8,3.7,6,2,.2,6.3-4.7,12.6-14.7,6.5-9,12.7-20.6,16.6-30.7,2.4-.7,5.2-1.4,8.1-1.5,4-.3,5.7,3.6,5.1,9.1-1.2,12.6-5.8,22-10.3,28-.9.9-2.1,1.3-3.7.9-1.9-.2-10.3-6.2-10.3-6.2,2.6,5.7,4.5,13.1,7.7,15.5,3.1,2.5,6.9,1.6,10.7-2.4,7-6.9,11.1-18.2,12.8-33.9.6-10.5-1.6-17.2-11.2-16.8Z"/>
</svg>