<?xml version="1.0" encoding="UTF-8"?>
<svg id="_レイヤー_1" data-name="レイヤー 1" xmlns="http://www.w3.org/2000/svg" version="1.1" viewBox="0 0 100 100">
  <defs>
    <style>
      .cls-1 {
        fill: #231815;
        stroke-width: 0px;
      }
    </style>
  </defs>
  <path class="cls-1" d="M87.64,27.76c-.4-2.9-5.5-4-7.2-4-1.1.4-2.5.8-3.9,1.9-2.1,1.5-4.9,2.8-8,3.4-.9-14.1,1-17.7-.7-19.3-2.4-2.3-5.6-4.3-10.8-4-3.1.2-4.7,3-4.7,3,3.5.5,5,2,5.7,4.5.7,2.8,1.6,8.8,2.1,17.9-1.4.3-4,.6-7.7.9-7.8,0-13.6-3.4-13.6-3.4-1.2,7.3,8.2,9.7,13.8,9.8,4-.2,6.5-.4,7.5-.7.1.5.1,2.7.1,6.2,0,12-.9,21.5-3.7,26.6-9.6,17.6-23.7,23.7-23.7,23.7,9.7-.2,23.4-8.4,28.6-15.3,4.6-6.2,7.5-17.1,7.5-31.2,0-5.4,0-9.2-.1-11.3,12.4-3,19.2-6,18.8-8.7Z"/>
</svg>