<?xml version="1.0" encoding="UTF-8"?>
<svg id="_レイヤー_1" data-name="レイヤー 1" xmlns="http://www.w3.org/2000/svg" version="1.1" viewBox="0 0 100 100">
  <defs>
    <style>
      .cls-1 {
        fill: #231815;
        stroke-width: 0px;
      }
    </style>
  </defs>
  <path class="cls-1" d="M82.05,69.04c-3.6-1.5-8.2-2.9-13.4-4.3l-.1-1.7c-.5-5.8-.9-13.1-.9-19,10-1.8,15.3-3.2,15.3-6,0-1.4-.9-2.6-2.9-3.6-1.3-.9-2.8-1.3-4-1.2-1.1,0-2.4.4-3.6,1.5-1.5,1-3,1.7-5.1,2.4.3-5.9.5-10.8.5-11.5,0-.4.6-3.3-3-5.6,3.9-.6,5.8-.2,9.3-.2,3.8,0,6.6-1.3,6.6-3.6,0-3-3.5-4.3-6.6-4.6-1.1.4-2.4.5-4.5.8-2.1.2-7.2.8-15.3,2.6-10.5,2.3-18.6,7.2-20.1,13,4.2-1.8,13.6-6.1,21.9-6.7.8.4,1.4.7,1.7,1.1.9,1,1.4,2.5,1.4,5.3,0,0,.2,8.9.5,11.1-3.2.6-5.7,1-8.4,1-6.3.2-10.3-4.6-10.3-4.6-1.7,8.9,4.5,11.3,11.6,11,2.9-.1,5.5-.3,7.1-.7l.7,17.9c-2.1-.1-4.4-.1-6.8,0-4.5.5-8.4,1.9-11.8,4.6-2.7,2-4.2,4.6-4.2,7.8,0,2.1.6,4,2.1,5.6,3.9,3.5,8.5,5.2,13.5,4.7,5.5-.5,9.5-1.8,12-4,2.7-2.1,3.9-5.5,3.9-9.5,4.6,1.6,8.6,3.7,11.9,5.8,1.6,1.1,2.9,1.6,3.8,1.6,2.6.2,4.2-1.3,4.2-4.1,0-2.2-2.3-4.4-7-6.9ZM60.95,70.94c0,5-2.9,7.8-9.1,8.6-3.7.2-5.9-.2-7-1.2-1.3-1.2-1.7-2.2-1.7-3,0-.7.3-1.4,1.4-2.1,2.2-1.8,4.6-3,7.3-3.2,2.8-.4,5.7-.4,9.1.5v.4Z"/>
</svg>