<?xml version="1.0" encoding="UTF-8"?>
<svg id="_レイヤー_1" data-name="レイヤー 1" xmlns="http://www.w3.org/2000/svg" version="1.1" viewBox="0 0 100 100">
  <defs>
    <style>
      .cls-1 {
        fill: #231815;
        stroke-width: 0px;
      }
    </style>
  </defs>
  <path class="cls-1" d="M69.44,37.94c-3.5-4.3-8.1-6.7-14.1-6.8-3.9-.2-7.9,1-12,3.6-4.2,2.7-7,4.3-8.6,4.9-6.6,2.3-9.5-2.6-9.5-2.6-2.8,9.1,3.4,14.2,11.1,11.2.9-.1,1.9-.9,3.3-1.6,2.3-2.1,5.1-4.9,8.3-7.2,3-2,5.4-2.6,7.9-2.5,2.7,0,4.9,1.2,6.8,3.9,2.3,3,3.3,7.8,3.3,12.9,0,8.8-3.2,16.4-9.5,23-5.4,5.5-17.3,14.7-25.8,17.5,10,1.7,24.9-6.5,31.1-12.1,8.9-7.8,13.7-17,13.7-28.4,0-6.4-2.1-11.5-6-15.8Z"/>
</svg>