<?xml version="1.0" encoding="UTF-8"?>
<svg id="_レイヤー_1" data-name="レイヤー 1" xmlns="http://www.w3.org/2000/svg" version="1.1" viewBox="0 0 100 100">
  <defs>
    <style>
      .cls-1 {
        fill: #231815;
        stroke-width: 0px;
      }
    </style>
  </defs>
  <path class="cls-1" d="M59.2,19.5c0-2.1-.5-3.9-3.9-4.7,0,0,1.9-3.3,7.2-3.6,5.4-.3,7.7,4,7.5,7.4-.2,2.9-1.3,6.9-3.7,12.7,5.4.7,10.2,2.3,13.7,5.4,6.3,4.6,9.7,11.3,9.7,19.9,0,9.3-3.8,16.7-10.9,22.5-7.2,5.9-22.2,10-33.7,9.7-3.4-.1-5.4-.9-5.7-2,0,0,14.8-1.1,28.3-8.8,7.7-4.4,12.2-12.7,12.2-21.3,0-6.6-2-11.5-6.1-15-2.3-2.1-5.5-4.1-9.7-4.9-4.1,8.1-7.9,14.8-11.7,19.5-3.7,4.4-6.5,7.6-6.5,7.6,1.7,2.3,4.1,3.8,4.3,5.2,0,3-1.3,4.7-3.9,4.7-1.3,0-2.7-.6-3.7-1.6-1.4-1.5-2.6-2.2-2.7-2.3-6.2,5.4-11.5,9-17,9-2.5,0-4.9-.6-7.1-1.9-3.7-2.4-5.5-6.3-5.5-11.6,0-7.3,3.8-14.4,11.2-21.3,2.6-2.4,4.7-4.1,6.1-5.1-2.2-9.9-9.8-21.6-9.8-21.6,1.5-1.3,3.5-.6,5.1.2,6.1,3.2,9.5,8,11.4,17.9,7.8-3.5,15.2-5,22.4-5,1.7-5,2.5-8.6,2.5-11ZM29.2,44.9c-6.4,4.9-9.9,12.3-10.4,21.3.2,4.1,2.1,6,6,6,3.3,0,7.4-2.3,12-7-2.7-4.5-5.4-11.1-7.6-20.3ZM35.5,41.1c1.2,7,4.1,13.5,6.8,18.5.4-.5,2.9-4.1,5.4-8,2.3-3.8,5-9.3,7.2-15.7-6.4.2-12.6,1.7-19.4,5.2Z"/>
</svg>