<?xml version="1.0" encoding="UTF-8"?>
<svg id="_レイヤー_1" data-name="レイヤー 1" xmlns="http://www.w3.org/2000/svg" version="1.1" viewBox="0 0 100 100">
  <defs>
    <style>
      .cls-1 {
        fill: #231815;
        stroke-width: 0px;
      }
    </style>
  </defs>
  <path class="cls-1" d="M21.75,65.64c-1.8,4.1-2.1,5.5-2.1,5.5-1.1-3.3-2.3-7.2-2.3-11.2,0-7.2,1-14.1,4.5-23.5,2.7-7.3,4.3-12,4-13.1-3.1-13.3-12.6-8-12.6-8,3,1.8,2.6,3.9,2.6,6.5,0,2-.3,4.2-.9,7-2.8,14.8-4,25.6-4,32.5.4,12.3,2.6,20.6,6.6,25,3.9,4.2,7.7,1.6,6.7-5.5-1-7.3,4.4-26.8,4.4-26.8,0,0-4.4,6-6.9,11.6Z"/>
</svg>