<?xml version="1.0" encoding="UTF-8"?>
<svg id="_レイヤー_1" data-name="レイヤー 1" xmlns="http://www.w3.org/2000/svg" version="1.1" viewBox="0 0 100 100">
  <defs>
    <style>
      .cls-1 {
        fill: #231815;
        stroke-width: 0px;
      }
    </style>
  </defs>
  <path class="cls-1" d="M74.42,39.72c1.4,0,3.1.3,5,1.1,1.8,1.4,3,3.2,3,5.1,0,2.3-1.7,3.5-5,3.6-1,0-2,0-3-.1-3.9-.8-7.5-.9-10.7-.7-7.5.5-13.6,4.1-18.6,10.4-2.6,3.3-2.2,6.7-1.3,9.4,1.1,2.5,3,4.9,6.3,7.1,2.8,1.8,6.1,3.4,10.1,4.6.9.2,2.1.5,4,.7,1.5.1,2.6.2,2.6.4,1.1.2,2.3.9,3.1,2,1.6,1.8,2.1,3.5,1.7,5.1-.8,2.6-4.4,3.1-10.6,1.7-7.8-2.3-14.2-5.8-19.2-10.2-4.2-4.1-6.1-7.5-6.3-12.4-.3-4.9,3.7-10,9.5-15.6-8.6,2.1-14.7,3.8-17.1,5.2-2.1,1.2-3.6,1.8-4.6,1.8-4.2.1-6.3-1.5-5.6-4.4.5-2.8,2.2-5.4,5-7.7,5.1-2.1,18.1-12.1,32-30.1,1.3-1.5-1.8,0-1.3-.5-2.8.8-7.3,4.4-12.6,6.6-.9.1-1.6.2-2,.2-4.4,0-7.1-1-8.5-5.9-.5-1.8,1-6.2,1-6.2,0,0,3,3.4,8.2,2.9.5,0,2.1-.3,4.6-.6l7.4-1.5c1.5-.3,2.9-1,4.4-1.8.8-.6,1.9-.8,2.7-.8,1.4,0,3.3,1.5,5.8,4.2,1.5,1.4,2.1,3,2.1,4.3s-.9,2.4-2.8,3.2c-15.3,14.5-26.5,22.7-32.9,27.4l9-2.1c19.4-4.1,31-6.2,34.6-6.4Z"/>
</svg>