<?xml version="1.0" encoding="UTF-8"?>
<svg id="_レイヤー_1" data-name="レイヤー 1" xmlns="http://www.w3.org/2000/svg" version="1.1" viewBox="0 0 100 100">
  <defs>
    <style>
      .cls-1 {
        fill: #231815;
        stroke-width: 0px;
      }
    </style>
  </defs>
  <path class="cls-1" d="M77.41,42.67c1.7,1.5,3.5,4.4,4.8,4.4,2.7,0,4.5-1.4,4-4.8-.3-2.4-2.1-5.4-4.8-7.1-6.6-4.2-11.8-4.2-18-4.5-6,.9-8.4,4.4-8.4,4.4,5.6-.9,13.1.4,15.7,2.1,0,0-5.1,2.3-7.2,4.2-4.1,3-6.1,8.7-6.2,12l.3,14.6c-1.3-.2-3.3-.2-5.9-.1-4.5.3-8.4,2-11.6,4.9-2.4,2.1-3.6,4.7-3.6,7.9-.2,2.8.9,5.2,3.1,7.2,3.4,3,7.3,4.1,11.9,3.7,9.6-.6,14.6-5.2,14.8-13.3v-.8c2.6,1.2,5.9,3.2,9.4,6,1.5,1.7,3.1,2.3,4.5,2.3,2.4-.1,3.9-1.8,4-4.7.1-2.7-2.2-5.2-6.9-7.7-4.1-2-8.1-3.3-11.2-4.1-.2-2.4-.6-9.2-1.2-15.3-.6-3.2-.2-7.1,2.1-9.7,1.8-1.6,6.2-5.4,10.4-1.6ZM58.01,77.97c-.1,1.8-.6,3.3-1.5,4.2-.9,1-3.4,2.4-6.3,2.5-8.9.2-8.6-3.9-8.6-4.2.5-5,7-5.5,9.9-5.9,2.5-.1,4.7,0,6.4.4l.1,1.2v1.8Z"/>
</svg>