<?xml version="1.0" encoding="UTF-8"?>
<svg id="_レイヤー_1" data-name="レイヤー 1" xmlns="http://www.w3.org/2000/svg" version="1.1" viewBox="0 0 100 100">
  <defs>
    <style>
      .cls-1 {
        fill: #231815;
        stroke-width: 0px;
      }
    </style>
  </defs>
  <path class="cls-1" d="M14.1,83.26c-3.2,0-4.6-2.3-4.6-6.3,0-1.7,1.2-3.9,3.5-6.4,3.4-3.5,9.3-12.6,17.9-23.3l.2-11.8c-1.9.7-4.6,2.2-7.9,3.9-2.2,1-3.9,1.7-4.8,1.7-3.5,0-6.1-1.4-7-7.1,0,0,4.6.5,8-.4,4-1.1,8.2-2.3,11.9-4.4.1-.6.1-1.8.1-3.4v-2c0-4-.1-9.9-4-12.2,6-3.1,14-.9,13.7,4.3,0,1-.2,2.5-.8,4.6-.5,2.5-.9,5.2-1.2,6.9.3-.2,1.6.3,3.1,1.4,1,.9,1.4,1.9,1.4,2.8s-.6,1.9-1.7,2.7c-1.5,1.1-2.9,2.5-4.1,3.9v4.6c9.3-10.2,18-17,25.5-19.5,6.1-1.9,11.1-1,14.8,2.8,4,3.9,5.9,10.5,6.1,19.4.3,8.7-.8,16-3.3,21.4,6.4,4.6,9.7,8.4,9.6,11.1-.2,3.1-2,4.8-4.9,4.4-1.2-.1-2.5-1.2-4-3-1.7-2.4-3.4-4.4-4.7-5.4-3.4,4.6-9.5,6.6-17.6,5.6-5.2-.4-9.3-2.5-12.1-5.7-1.3-1.8-1.8-3.7-1.8-5.4.1-2.3,1.1-4.3,3.1-5.9,3.6-2.8,8.2-4,13.8-3.2,4.2.4,7.9,1.4,10.8,3.1,1.6-4,2.2-9.4,2-15.9-.3-6.8-1.7-12.3-4.2-15.2-1.8-2.2-4.1-2.9-7.4-1.7-6.6,2.2-15.2,8.2-25.8,20,0,11.3.2,20,.9,27.3.1,1.2.1,2.3.1,3.3,0,2.4-.5,4.4-1.4,5.9-1.7,2.5-3.3,3.7-4.8,3.7-2.1,0-3.6-1.6-4-4.8-.9-4.1-2.3-9.6-4.3-16-2.9,5.4-5.3,9.5-6.7,11.8-1,1.5-2.1,2.4-3.4,2.4ZM26.8,64.16l3.6,10.3c.4-5.9.7-10.8.4-18.2,0,0-1.7,3.9-4,7.9ZM60.4,64.86c-3.1-.5-5.7.1-8.1,2.1-1.2.5-1.5,1.1-1.5,2.1-.1.2-.1.4.2.9,1.4,2,3.8,3,7.3,3.5,5.8.9,9.8-.7,11.9-4.6-3.1-2.2-6.3-3.3-9.8-4Z"/>
</svg>