<?xml version="1.0" encoding="UTF-8"?>
<svg id="_レイヤー_1" data-name="レイヤー 1" xmlns="http://www.w3.org/2000/svg" version="1.1" viewBox="0 0 100 100">
  <defs>
    <style>
      .cls-1 {
        fill: #231815;
        stroke-width: 0px;
      }
    </style>
  </defs>
  <path class="cls-1" d="M53.7,43.62c0-4.5-.2-9.4-.6-13.7-9.7,2.3-18,10-23.9,22.5-2.9,6-4,12.1-4.1,17.4-.1,4.2-1,6.5-2.8,6.5-1.4,0-3.1-1.2-4.6-3.3-3.9-6.1-5.9-13.7-5.9-22.9,0-5.3.5-11.6,1.9-19,.5-1.9.7-3.3.7-4.6,0-3.5-2.4-6.1-2.4-6.1,4.7-3.8,12.1,1.2,12.1,5.4,0,.9-.5,3-1.4,6.2-2.4,7-4.4,13.5-4.4,18.9,0,2.7.3,5.1.8,6.7,8.8-18.5,20.1-29.8,33.6-33.2-.4-6.2-2.5-11-7.5-12.4,5-4.6,13.6-3.4,14.8,2.4s.8,2.2,1.2,8.6c.6-.1,1.1-.1,1.5-.1,4.7,0,9.2,1,13.1,3,8.2,4.1,12.4,10.5,12.4,19.2,0,7.8-2.5,14.1-7.4,18.8-5.4,5.4-12.6,8.6-21.2,8.6-1.7,0-2.9-.1-3.2-.2-3.5,7.5-12.3,14.9-26,18.1-2.6.6-5.1.5-6.4-.3,0,0,18.4-5.9,25.2-20.2-10-6.5-13.1-14.8-11.8-16.6,0,0,7.9,9.1,14,10.4,1.5-3.9,2.3-10.6,2.3-20.1ZM79.1,44.81c0-5.1-2-9-5.9-11.9-3.3-2.2-7.1-3.5-11.4-3.9.2,1.9.2,6.7.2,13.5,0,11.4-.9,19-3.4,23.8,6.6.7,12.3-2.8,16.4-7.5,2.6-3.4,4.1-8.9,4.1-14Z"/>
</svg>