<?xml version="1.0" encoding="UTF-8"?>
<svg id="_レイヤー_1" data-name="レイヤー 1" xmlns="http://www.w3.org/2000/svg" version="1.1" viewBox="0 0 100 100">
  <defs>
    <style>
      .cls-1 {
        fill: #231815;
        stroke-width: 0px;
      }
    </style>
  </defs>
  <path class="cls-1" d="M42.61,30.57c9.8-2.1,14.2-2.8,14.2-5.7,0-1.1-.2-1.8-1.2-2.6-1.2-1.1-2.8-1.6-4.5-1.4-1.3.3-2.6.9-3.7,1.7l-2.5.9c3.1-7.2,3.7-9.6,3.8-10.6.2-3.8-5.2-5.2-8.1-4.2-3.6,1.3-4.4,2.8-4.4,2.8,0,0,2.7,1.1,2.4,3.4-.2,1.7-.9,5.2-2.4,10.2-3.2.8-6.2,1.1-9.5.8-4.4-.4-9.8-4.6-9.8-4.6-2.1,8.6,6.8,11.1,11.7,10.9,1.5,0,3.4-.2,5.1-.5-4.6,11.7-10,21-17.2,29.9-1.7,1.9-2.8,3.9-2.8,5.6,0,4,1.8,6,4.7,6,1.4,0,3-1.2,4.5-3.5,7.8-12,14-24,19.5-38.5l.2-.6Z"/>
</svg>