<?xml version="1.0" encoding="UTF-8"?>
<svg id="_レイヤー_1" data-name="レイヤー 1" xmlns="http://www.w3.org/2000/svg" version="1.1" viewBox="0 0 100 100">
  <defs>
    <style>
      .cls-1 {
        fill: #231815;
        stroke-width: 0px;
      }
    </style>
  </defs>
  <path class="cls-1" d="M26.04,67.5q-.1,0-.3-.3c-3.5-4.1-5.3-10.9-5.3-20.4,0-4.6.7-9.1,1.7-13.7.3-1.8.4-3.1.4-4.1,0-5.9-6.7-10.6-13.2-8.5,2.6,3.2,3.1,11.3,3.1,15.1.1,11.5.7,19.9,2.2,25.7,1.4,6.4,4.3,11.7,8.4,15.5,5.5,5.2,9.4,4,10.8-3.1,1.3-7.1,5.3-17,7.1-24,0,0-2.6,2.8-8.9,11.3-3,4.3-5.9,6.5-6,6.5Z"/>
</svg>