<?xml version="1.0" encoding="UTF-8"?>
<svg id="_レイヤー_1" data-name="レイヤー 1" xmlns="http://www.w3.org/2000/svg" version="1.1" viewBox="0 0 100 100">
  <defs>
    <style>
      .cls-1 {
        fill: #231815;
        stroke-width: 0px;
      }
    </style>
  </defs>
  <path class="cls-1" d="M16.34,83.26c-3.2,0-4.6-2.3-4.6-6.3,0-1.7,1.2-3.9,3.5-6.4,3.4-3.5,9.3-12.6,17.9-23.3l.2-11.8c-1.9.7-4.6,2.2-7.9,3.9-2.2,1-3.9,1.7-4.8,1.7-3.5,0-6.1-1.4-7-7.1,0,0,4.6.5,8-.4,4-1.1,8.2-2.3,11.9-4.4.1-.6.1-1.8.1-5.4,0-4-.1-9.9-4-12.2,6-3.1,14-.9,13.7,4.3,0,1-.2,2.5-.8,4.6-.5,2.5-.9,5.2-1.2,6.9.3-.2,1.6.3,3.1,1.4,1,.9,1.4,1.9,1.4,2.8s-.6,1.9-1.7,2.7c-1.5,1.1-2.9,2.5-4.1,3.9v7.3c8.2-11.1,16.8-16.7,25-17.7,6.2-.6,11.7,1.1,16,5.1,4.8,4.1,7.2,9.8,7.2,17.2.2,9.1-3.2,16.4-10.1,21.9-6.9,5.8-17.2,9.6-27.5,9.3-2.2-.1-4.2-.8-4.2-.8,0,0,10.9-3,22.4-10.9,6.9-4.7,10.3-10.8,10.3-18.8,0-4.7-1.2-9.5-3.5-12.4-2.9-3.5-6.5-5-11.2-4.4-7.1.9-15.3,6.4-24.5,18,0,10.2.2,18.2.9,25,.1,1.2.1,2.3.1,3.3,0,2.4-.5,4.4-1.4,5.9-1.7,2.5-3.3,3.7-4.8,3.7-2.1,0-3.6-1.6-4-4.8-.9-4.1-2.3-9.6-4.3-16-2.9,5.4-5.3,9.5-6.7,11.8-1,1.5-2.1,2.4-3.4,2.4ZM29.04,64.16l3.6,10.3c.4-5.9.7-10.8.4-16.6,0,0-1.7,2.3-4,6.3Z"/>
</svg>