<?xml version="1.0" encoding="UTF-8"?>
<svg id="_レイヤー_1" data-name="レイヤー 1" xmlns="http://www.w3.org/2000/svg" version="1.1" viewBox="0 0 100 100">
  <defs>
    <style>
      .cls-1 {
        fill: #231815;
        stroke-width: 0px;
      }
    </style>
  </defs>
  <path class="cls-1" d="M66.45,15.61c.9,2-3,5.7-8.8,10.4-14.2,11.7-21.1,18.5-21.1,20.6,0,.2.5,1,2,2.3,20.5,16.8,30.9,29,30.9,36.5,0,4-1.8,6.2-5,6.2-1.8,0-3.5-1.6-5.2-4.7-3.9-8-8.3-14.8-13.5-21.1-3.9-4-8.4-8.1-11.6-12.1-2.3-2-3.6-4.3-3.6-6.9s1.5-5.8,4.5-8.6c2-2.8,8.9-9.1,16.8-18.8,2.6-2.8,3.7-4.5,3.8-5.6.2-1-.3-2.7-1.5-4.9,0,0,7.8-3.3,12.3,6.7Z"/>
</svg>