<?xml version="1.0" encoding="UTF-8"?>
<svg id="_レイヤー_1" data-name="レイヤー 1" xmlns="http://www.w3.org/2000/svg" version="1.1" viewBox="0 0 100 100">
  <defs>
    <style>
      .cls-1 {
        fill: #231815;
        stroke-width: 0px;
      }
    </style>
  </defs>
  <path class="cls-1" d="M32.64,47.56s-3,1.2-7.6,11c-1.7,3.6-3.9,8.3-3.9,8.4-.9-2.8-1.4-6-1.4-9.7,0-6.3,1.4-13.8,4.2-22.6,2.2-6.8,4.5-11.5,3.5-13.3-5.5-10.5-13-5.3-13-5.3,1.8,1.2,2.8,3,2.8,5.4,0,1.7-.3,3.6-.9,6-2.6,13.5-4,23.1-4,29.4.4,10.9,2.8,17.8,5.9,22.5,3.2,4.9,8.1,3.5,7-2.2-.8-4,7.4-29.6,7.4-29.6Z"/>
</svg>