<?xml version="1.0" encoding="UTF-8"?>
<svg id="_レイヤー_1" data-name="レイヤー 1" xmlns="http://www.w3.org/2000/svg" version="1.1" viewBox="0 0 100 100">
  <defs>
    <style>
      .cls-1 {
        fill: #231815;
        stroke-width: 0px;
      }
    </style>
  </defs>
  <path class="cls-1" d="M47.98,80.82c4.3-.4,6.5-2.2,6.8-5.3,0-3.2-1.7-6.5-4.9-10.2-1.7-2-3.3-4.4-4.2-5.4-7.2,3.1-15.6,8.9-25,18.1-2.1,2.1-4.1,3.1-5.6,3.1-3.3,0-12.2-1-8.3-13.7,0,0,3.4,4.3,8.4,4,3.8-.2,8.3-4.1,13.8-7.7,5-3,10-5.8,14.5-7.8-2.3-4.1-3.8-9.3-2.7-14.6,1-4.9,3.7-10.3,8.7-13.6,0,0-11.1-8.7-9.2-15.5,7,4.8,12.1,7.9,19,10.4,4.7,1.8,6.5,5,5.4,9.2-.7,2-2.6,2.8-5.2,2.3-2-1.7-5-2.4-7.6-1.5-2.6.8-5.3,4.6-5.8,8.7-.5,3.8,2,8.1,4.6,11.5,4.1-1.4,8.7-2.2,13.5-2.1,11.3.7,19.1,3.2,23.4,7.9,4.3,4.2,6.6,8.4,6.6,12.1,0,4.2-2,6.3-5.3,6.3-2.6,0-4.3-1.4-5-4.4-2.6-9.8-9.7-16-20.8-16.7-4-.3-7.3.1-9.5.6.2.5,1.8,2.5,3.6,4.1,4.9,4.8,7.4,9.8,7.4,15,.4,6.4-3.1,10.4-10.9,11.9-7.8,1.6-21.2-4.5-22.1-8.9,0,0,11.9,2.6,16.4,2.2Z"/>
</svg>