<?xml version="1.0" encoding="UTF-8"?>
<svg id="_レイヤー_1" data-name="レイヤー 1" xmlns="http://www.w3.org/2000/svg" version="1.1" viewBox="0 0 100 100">
  <defs>
    <style>
      .cls-1 {
        fill: #231815;
        stroke-width: 0px;
      }
    </style>
  </defs>
  <path class="cls-1" d="M78.32,55.9c-4.1-3-9.1-3.9-15-3.9-7.6,0-15.2,2.7-23,7.8v-19.9c12.6-3.2,19.2-6.4,19.2-9.7,0-.6-.5-1.4-1.2-2.2-1.6-1.6-3.6-2.2-5.5-2.2-1,0-2.5.4-4.3,1.6-2.7,2.3-5.5,3.8-7.9,4.6.2-3.9.8-7.7,1.2-11,.2-.8.4-1.6.5-2.6.3-7-7.8-9-14.2-3.9,0,0,4.3,1.4,4.3,9.8v9.5c-1.4.3-3.7.4-6.6.5-8.7.1-16.6-5-16.6-5-.3,1.3-.1,2.7,1,3.9,3.7,5.5,9,8.4,15.6,8.3,2.6,0,5.1-.2,6.6-.5l-.1,23.4c-18.8,11.2-25.1,7.2-25.1,7.2-1.2,7.8,8.4,6.8,12.1,5.3l8,9c3,3.7,6.6,3.2,10.1-1.5,2-1.7,2.9-5,2.9-9.2v-9.2c8.2-5.1,15.4-8.1,21.7-8.1,4,0,7.1.9,9.3,2.3,2.5,2,3.6,4.3,3.3,7.5-.1,3-1.8,6.4-5.3,8.9-2.9,1.6-6.3,2.6-10,3-8.2,1.1-15-2.2-15-2.2.3.8,4.3,8.4,17.5,8.5,5.8,0,10.9-1.4,14.8-4.4,4.8-3.6,7.5-8,7.7-13,.2-5.2-1.9-9.4-6-12.6ZM31.01,79.21c-.8-.5-3.5-.9-6.5-3.9,3.4-2.2,5.9-3.6,7.7-4.9,0,4.3-.5,7-1.2,8.8Z"/>
</svg>