<?xml version="1.0" encoding="UTF-8"?>
<svg id="_レイヤー_1" data-name="レイヤー 1" xmlns="http://www.w3.org/2000/svg" version="1.1" viewBox="0 0 100 100">
  <defs>
    <style>
      .cls-1 {
        fill: #231815;
        stroke-width: 0px;
      }
    </style>
  </defs>
  <path class="cls-1" d="M72.53,53.73c-4-4.5-9.8-6.7-17.1-6.7-8.6,0-16.2,3-22.5,9.2-1.2,1.2-2,1.7-2.2,1.8-.4-5,.6-10.1,2.9-15.1,1.2-8.5-3-14.4-3-14.4-3.5,2.3-8.3,21.9-7.7,31.7.7,7.1,2.5,10.9,5.7,10.9,1.2,0,2.2-.6,2.7-2.3,1.2-4.1,3.3-7.2,6.3-9.9,4-3.6,9.4-6.2,16.5-6.4,3.9,0,7.8,2.1,10.4,4.6,1.8,2.2,2.7,4.8,2.7,7.8,0,10.3-13.3,19.1-39.2,24.1,1.7,1.5,4.1,1.8,6.4,1.7,27.9-1.4,42.7-10.4,42.7-25.6,0-4.2-1.6-8.2-4.6-11.4Z"/>
</svg>