<?xml version="1.0" encoding="UTF-8"?>
<svg id="_レイヤー_1" data-name="レイヤー 1" xmlns="http://www.w3.org/2000/svg" version="1.1" viewBox="0 0 100 100">
  <defs>
    <style>
      .cls-1 {
        fill: #231815;
        stroke-width: 0px;
      }
    </style>
  </defs>
  <path class="cls-1" d="M56.88,30.64c-.1-1-.6-1.9-1.5-2.7-1.6-.6-3.3-.8-5.2-.8-1,0-2.5.4-4.1,1.4-1.1.6-2.4,1.2-3,1.6.1-.9.4-2,.7-2.9,1-3.6,1.6-6,2.3-7.1.5-1.1.6-2.2.5-3.2-.3-3.2-2.3-6.3-7-5.9-4.1.4-6.9,2.8-6.9,2.8,2.1.8,3.5,2.5,3.7,4.3.2,1.7-.6,6.2-2.4,13.6-3.7.4-6.7.6-8.8.6-5.8,0-10.3-1.6-13.4-3.3-1.5,6.7,7.8,9.8,14.3,9.8,1.1,0,3.3-.1,6-.4-4.6,15.8-9.6,28.1-14.9,37.4-1.6,2.7-2.2,4.8-2,6.7.2,1.7.8,3.2,2.2,4.5.9,1,2.1,1.5,3.1,1.5,1.5,0,3.1-1.7,4.5-5.3,5-11.9,10.4-26.9,16-45.6,11-1.8,16.3-3.7,15.9-7Z"/>
</svg>