<?xml version="1.0" encoding="UTF-8"?>
<svg id="_レイヤー_1" data-name="レイヤー 1" xmlns="http://www.w3.org/2000/svg" version="1.1" viewBox="0 0 100 100">
  <defs>
    <style>
      .cls-1 {
        fill: #231815;
        stroke-width: 0px;
      }
    </style>
  </defs>
  <path class="cls-1" d="M42.34,86.72c-12.5,0-19.2-9.6-20.1-28.5-.2-3.1,0-11.5.5-24.9.1-6.4.3-9.7.1-10-.1-4-1.7-6.6-4.1-8,0,0,8.6-7.1,14.3,5.2.2.5-.3,3.6-1.2,9.1-1.5,10.8-2.2,20.6-2,29.4.6,13.1,5.1,19.5,13.4,19.5,8.9.4,20-5.8,38-19.6,0,0,.5,2.9-2.7,6.7-12.7,15.1-23.2,21.2-36.2,21.1Z"/>
</svg>