<?xml version="1.0" encoding="UTF-8"?>
<svg id="_レイヤー_1" data-name="レイヤー 1" xmlns="http://www.w3.org/2000/svg" version="1.1" viewBox="0 0 100 100">
  <defs>
    <style>
      .cls-1 {
        fill: #231815;
        stroke-width: 0px;
      }
    </style>
  </defs>
  <path class="cls-1" d="M39.43,62.54c-1.6-.3-2.6-1.4-3-2.7-2.1-4.5-3-9.9-2.4-15.7.4-4.7,2-11.6,5.1-20.3,1-3.1,1.7-5.4,2.1-7.3.1-2.1.2-5.7-2.2-9.1,9.7-1.1,11.6,7.8,11.4,11.7-.1,1.3-.5,3.2-2.2,5.6-2.6,3.6-3.5,7.4-3.5,7.4,0,0,3.6-4.3,6.1-5.1,14.8-4.5,21.2,6.4,20.6,27.5-.3,11.1-3.6,19.8-10.1,26.6-5.3,5.9-14.9,10-28.8,11.5-2.1.1-3.6-.6-4-1.4,0,0,17.9-3.4,28.1-17.7,3.8-5.3,5.3-12,5.5-19.7.3-14.9-3-22.7-10-21.5-3.1.5-5.5,2-6.9,4.8-1.7,2.9-2.4,6.6-2.4,9,.2,3.6.8,6.9,2,10,.7,4.5-1.1,6.7-5.4,6.4Z"/>
</svg>