<?xml version="1.0" encoding="UTF-8"?>
<svg id="_レイヤー_1" data-name="レイヤー 1" xmlns="http://www.w3.org/2000/svg" version="1.1" viewBox="0 0 100 100">
  <defs>
    <style>
      .cls-1 {
        fill: #231815;
        stroke-width: 0px;
      }
    </style>
  </defs>
  <path class="cls-1" d="M33.88,18.19c.6-5.1-2.4-6-2.4-6,0,0,1.3-1.5,3.6-2,6.2-1.3,9.1,2.1,9.1,6.5,0,.7-.3,1.8-.7,2.9-1.1,1.8-2.1,5.1-3.3,8.3,5.5-.8,9.7-4.5,11.9-4.1,2.4.4,3.3.7,4.2,2.3.6.6.8,1.7.7,2.6-.5,2.2-8.3,4.4-18.5,5.7-3.6,10.8-5.1,19-5.1,24,9.8-5.5,18.9-8.1,27.3-8.1,5.5,0,10.2,1.3,13.8,4.3,3.2,2.9,4.6,6.6,4.6,11.2,0,7.2-4.1,13.2-11.8,18.1-6.9,4.5-26.5,8.2-33,5.8,0,0,15.6-3.4,26.1-10.3,5.9-4,8.9-8.3,8.9-13.6,0-6.5-3.4-10.4-10.6-10.4-3.9,0-8.3,1.8-13.2,4.4-4.7,2.6-8.7,6.3-11.4,10.5-.8.8-1.7,1.3-2.6,1.3-3.4,0-5.1-3.6-5.1-10.4,0-4.8,1.3-13.4,4-26.4-2.3,0-4.2,0-5.5-.1-5.8-.4-14.7-4.5-11.5-12.1,3.4,3.6,7.3,5.6,11.2,5.9,1.3.1,3.8.1,7.2-.1,1-3.3,2-9.1,2.1-10.2ZM76.98,26.79c0,2.4-1.3,3.8-3.9,3.8-1.1,0-2.3-.8-3.5-2.3-5.3-7.7-13.2-11.7-13.2-11.7.4-.3,2.3-.7,2.3-.7,9.1,1,18.3,5.2,18.3,10.9ZM87.18,16.39c.5,2.4-.6,4-3,4.7-1.1.2-2.4-.3-4-1.6-6.8-6.3-15.4-8.5-15.4-8.5.3-.4,2.1-1.2,2.1-1.2,9.1-1,19,1.1,20.3,6.6Z"/>
</svg>