<?xml version="1.0" encoding="UTF-8"?>
<svg id="_レイヤー_1" data-name="レイヤー 1" xmlns="http://www.w3.org/2000/svg" version="1.1" viewBox="0 0 100 100">
  <defs>
    <style>
      .cls-1 {
        fill: #231815;
        stroke-width: 0px;
      }
    </style>
  </defs>
  <path class="cls-1" d="M16.24,28.51c1.3-.2,12.3-3,33-8.6,15.4-4,23.9-6.1,26-6.3,2.3-.1,4.7.3,6.8,1.5,1.7,1,2.7,2.2,2.7,3.8,0,2.4-2,4-5.4,4.4-.9.1-2.2.1-3.8,0-2.7-.3-4.9-.3-6.4,0-5.6.6-10.6,2.8-14.3,7.5-9.1,11.8-12.3,22-11.6,30.8.8,5.2,2.6,9.9,5.5,12.2,2.6,2.2,6.6,3.4,11.8,3.4,1.7,0,3.5-.2,5.7-.7,1.3-.3,2.3-.4,3.4-.4,2,0,3.8.6,5.6,1.9,1.5,1.1,2.4,2.4,2.4,3.7,0,3.2-4.3,4.7-12.4,4.7-18.3,0-28.3-7.5-29.7-22.6-1-12.3,4.9-25.1,16.8-37.4-11.4,2.9-19.9,5.6-29.1,9.6-2.3,1.1-5.8,2.4-6.8,2.4-4.5.4-7.2-1-8.8-4-1.7-3.1.1-7,.8-8.4,0,0,2,3.2,7.8,2.5ZM82.75,49.41c0,2.4-1.3,3.8-3.9,3.8-1.1,0-2.3-.8-3.5-2.3-5.3-7.7-13.2-11.7-13.2-11.7.4-.3,2.3-.7,2.3-.7,9.1,1,18.3,5.2,18.3,10.9ZM92.95,39.01c.5,2.4-.6,4-3,4.7-1.1.2-2.4-.3-4-1.6-6.8-6.3-15.4-8.5-15.4-8.5.3-.4,2.1-1.2,2.1-1.2,9.1-1,19,1.1,20.3,6.6Z"/>
</svg>