<?xml version="1.0" encoding="UTF-8"?>
<svg id="_レイヤー_1" data-name="レイヤー 1" xmlns="http://www.w3.org/2000/svg" version="1.1" viewBox="0 0 100 100">
  <defs>
    <style>
      .cls-1 {
        fill: #231815;
        stroke-width: 0px;
      }
    </style>
  </defs>
  <path class="cls-1" d="M33.84,73.7c-1.4,7.1-5.3,8.3-10.8,3.1-4.1-3.8-7-9.1-8.4-15.5-1.5-5.8-2.1-14.2-2.2-25.7,0-3.8-.5-11.9-3.1-15.1,6.5-2.1,13.2,2.6,13.2,8.5,0,1-.1,2.3-.4,4.1-1,4.6-1.7,9.1-1.7,13.7,0,9.5,1.8,16.3,5.3,20.4q.2.3.3.3c.1,0,3-2.2,6-6.5,6.3-8.5,8.9-11.3,8.9-11.3-1.8,7-5.8,16.9-7.1,24ZM87.44,42.1c2.8,6,3.8,11.2,2.9,15.5-.8,4.7-3,6.8-6.8,6-2.4-.5-3.7-2.8-3.8-6.6,1-4.8.2-9.5-2.4-14.4-4.4-8.3-14.7-11.5-14.7-11.5,5.3-3.5,19.3,2,24.8,11Z"/>
</svg>