<?xml version="1.0" encoding="UTF-8"?>
<svg id="_レイヤー_1" data-name="レイヤー 1" xmlns="http://www.w3.org/2000/svg" version="1.1" viewBox="0 0 100 100">
  <defs>
    <style>
      .cls-1 {
        fill: #231815;
        stroke-width: 0px;
      }
    </style>
  </defs>
  <path class="cls-1" d="M10.68,52.17c2.4.1,4.7-.6,7.3-2.2,17.6-11.6,30.8-17.2,40-17.2,7.7,0,14,1.7,18.8,5.4,5.5,4.4,8.4,10.2,8.4,17.3,0,9.9-5.1,17.9-15,24.1-8.8,5.4-19.9,8.6-34.7,8.6-3.3,0-6.1-1.9-6.1-1.9,0,0,45.9-6,45.8-30.9,0-5.3-1.6-10.1-5.2-12.9-3-2.6-7.1-3.8-12-3.8-9.7,0-23,7.9-40,22.1-1.7.6-6.8.4-9.4-1.6-5.9-4.4-2.5-9.2-2.5-9.2,0,0,2.2,2.2,4.6,2.2ZM84.58,29.07c0,2.4-1.3,3.8-3.9,3.8-1.1,0-2.3-.8-3.5-2.3-5.3-7.7-13.2-11.7-13.2-11.7.4-.3,2.3-.7,2.3-.7,9.1,1,18.3,5.2,18.3,10.9ZM94.78,18.67c.5,2.4-.6,4-3,4.7-1.1.2-2.4-.3-4-1.6-6.8-6.3-15.4-8.5-15.4-8.5.3-.4,2.1-1.2,2.1-1.2,9.1-1,19,1.1,20.3,6.6Z"/>
</svg>