<?xml version="1.0" encoding="UTF-8"?>
<svg id="_レイヤー_1" data-name="レイヤー 1" xmlns="http://www.w3.org/2000/svg" version="1.1" viewBox="0 0 100 100">
  <defs>
    <style>
      .cls-1 {
        fill: #231815;
        stroke-width: 0px;
      }
    </style>
  </defs>
  <path class="cls-1" d="M35.05,28.18c0-7.2-3.7-8.4-3.7-8.4,5.5-4.3,12.4-2.6,12.1,3.4-.1.8-.2,1.5-.4,2.2-.4,2.8-.9,6-1,9.3,2-.7,4.4-1.9,6.7-3.9,1.5-1,2.8-1.3,3.6-1.3,1.7,0,3.4.5,4.7,1.8.6.7,1,1.4,1,1.9,0,2.8-5.6,5.5-16.3,8.2v17c6.6-4.4,13.1-6.7,19.6-6.7,5,0,9.2.8,12.7,3.3,3.5,2.8,5.3,6.3,5.1,10.7-.2,4.3-2.5,8-6.5,11.1-3.3,2.5-7.7,3.7-12.6,3.7-11.2,0-14.6-6.5-14.9-7.2,0,0,5.8,2.8,12.8,1.9,3.1-.4,6-1.2,8.5-2.6,2.9-2.1,4.4-5,4.5-7.5.2-2.8-.7-4.7-2.8-6.4-1.9-1.2-4.5-2-7.9-2-5.4,0-11.5,2.6-18.5,6.9v7.8c0,3.6-.8,6.4-2.5,7.9-2.9,4-6,4.4-8.5,1.2l-6.8-7.6c-3.2,1.3-11.3,2.1-10.3-4.5,0,0,5.3,3.4,21.3-6.1l.1-19.9c-1.3.2-3.4.4-5.6.4-5.6.1-10.1-2.4-13.3-7.1-.9-1-1.1-2.2-.8-3.3,0,0,6.7,4.4,14.1,4.3,2.5-.1,4.4-.2,5.6-.4v-8.1ZM33.85,74.78c.6-1.5,1-3.8,1-7.4-1.5,1.1-3.6,2.3-6.5,4.1,2.5,2.6,4.8,2.9,5.5,3.3ZM74.36,36.28c4.9-.2,8.6.8,10.6,3.1,2,2.5,2,4-.2,5.5-1.4.9-3.2.8-5.3-.1-8.4-4.2-26,1.4-26,1.4,9.3-7.3,16-9.8,20.9-9.9Z"/>
</svg>