<?xml version="1.0" encoding="UTF-8"?>
<svg id="_レイヤー_1" data-name="レイヤー 1" xmlns="http://www.w3.org/2000/svg" version="1.1" viewBox="0 0 100 100">
  <defs>
    <style>
      .cls-1 {
        fill: #231815;
        stroke-width: 0px;
      }
    </style>
  </defs>
  <path class="cls-1" d="M27.75,79.51c1,7.1-2.8,9.7-6.7,5.5-4-4.4-6.2-12.7-6.6-25,0-6.9,1.2-17.7,4-32.5.6-2.8.9-5,.9-7,0-2.6.4-4.7-2.6-6.5,0,0,9.5-5.3,12.6,8,.3,1.1-1.3,5.8-4,13.1-3.5,9.4-4.5,16.3-4.5,23.5,0,4,1.2,7.9,2.3,11.2,0,0,.3-1.4,2.1-5.5,2.5-5.6,6.9-11.6,6.9-11.6,0,0-5.4,19.5-4.4,26.8ZM57.95,29.71c-4.9,0-11.5-1.7-13.5-6.3-.6-1.4-.7-2.8,0-3.5,0,0,5.2,2.9,10.7,2.8,3.6-.1,8.2-.8,13.8-2.8,1.3-.5,2.8-.7,3.8-.8,2.3,0,4.1.6,5.4,2.1,1.2,1,2,2.2,2,3.3,0,2.4-2.1,3.6-5.7,4-10.9,1.5-16.5,1.2-16.5,1.2ZM65.25,72.01c3.4-.3,5.2-.6,9-1.4,1.2-.2,2.3-.3,3.6-.4,1.4,0,3.1.4,4.7,1.2,1.9,1,3,2.4,3,3.9,0,3.5-4.9,5.1-17.4,5.3-8.5.1-15.2-1.5-19.2-5.1-6.3-5.6-4.4-12-4.4-12,0,0,6.6,9.9,20.7,8.5Z"/>
</svg>