<?xml version="1.0" encoding="UTF-8"?>
<svg id="_レイヤー_1" data-name="レイヤー 1" xmlns="http://www.w3.org/2000/svg" version="1.1" viewBox="0 0 100 100">
  <defs>
    <style>
      .cls-1 {
        fill: #231815;
        stroke-width: 0px;
      }
    </style>
  </defs>
  <path class="cls-1" d="M19.85,86.94c1,7.1-2.8,9.7-6.7,5.5-4-4.4-6.2-12.7-6.6-25,0-6.9,1.2-17.7,4-32.5.6-2.8.9-5,.9-7,0-2.6.4-4.7-2.6-6.5,0,0,9.5-5.3,12.6,8,.3,1.1-1.3,5.8-4,13.1-3.5,9.4-4.5,16.3-4.5,23.5,0,4,1.2,7.9,2.3,11.2,0,0,.3-1.4,2.1-5.5,2.5-5.6,6.9-11.6,6.9-11.6,0,0-5.4,19.5-4.4,26.8ZM55.35,44.94c-.3-2.2-.5-11.1-.5-11.1,0-2.8-.5-4.3-1.4-5.3-.3-.4-.9-.7-1.7-1.1-8.3.6-17.7,4.9-21.9,6.7,1.5-5.8,9.6-10.7,20.1-13,8.1-1.8,13.2-2.4,15.3-2.6,2.1-.3,3.4-.4,4.5-.8.9.1,1.9.3,2.8.6-.1-.7-.2-1.5-.2-2.2,0-5.8,4.8-10.6,10.6-10.6s10.5,4.8,10.5,10.6-4.7,10.5-10.5,10.5c-2.7,0-5.2-1-7.1-2.7-1,1.3-3.3,2-6.1,2-3.5,0-5.4-.4-9.3.2,3.6,2.3,3,5.2,3,5.6,0,.7-.2,5.6-.5,11.5,2.1-.7,3.6-1.4,5.1-2.4,1.2-1.1,2.5-1.5,3.6-1.5,1.2-.1,2.7.3,4,1.2,2,1,2.9,2.2,2.9,3.6,0,2.8-5.3,4.2-15.3,6,0,5.9.4,13.2.9,19l.1,1.7c5.2,1.4,9.8,2.8,13.4,4.3,4.7,2.5,7,4.7,7,6.9,0,2.8-1.6,4.3-4.2,4.1-.9,0-2.2-.5-3.8-1.6-3.3-2.1-7.3-4.2-11.9-5.8,0,4-1.2,7.4-3.9,9.5-2.5,2.2-6.5,3.5-12,4-5,.5-9.6-1.2-13.5-4.7-1.5-1.6-2.1-3.5-2.1-5.6,0-3.2,1.5-5.8,4.2-7.8,3.4-2.7,7.3-4.1,11.8-4.6,2.4-.1,4.7-.1,6.8,0l-.7-17.9c-1.6.4-4.2.6-7.1.7-7.1.3-13.3-2.1-11.6-11,0,0,4,4.8,10.3,4.6,2.7,0,5.2-.4,8.4-1ZM47.45,76.14c-2.7.2-5.1,1.4-7.3,3.2-1.1.7-1.4,1.4-1.4,2.1,0,.8.4,1.8,1.7,3,1.1,1,3.3,1.4,7,1.2,6.2-.8,9.1-3.6,9.1-8.6v-.4c-3.4-.9-6.3-.9-9.1-.5ZM89.45,16.14c0-3.6-2.9-6.5-6.5-6.5s-6.5,2.9-6.5,6.5,2.9,6.5,6.5,6.5,6.5-2.9,6.5-6.5Z"/>
</svg>