<?xml version="1.0" encoding="UTF-8"?>
<svg id="_レイヤー_1" data-name="レイヤー 1" xmlns="http://www.w3.org/2000/svg" version="1.1" viewBox="0 0 100 100">
  <defs>
    <style>
      .cls-1 {
        fill: #231815;
        stroke-width: 0px;
      }
    </style>
  </defs>
  <path class="cls-1" d="M19.85,86.54c1,7.1-2.8,9.7-6.7,5.5-4-4.4-6.2-12.7-6.6-25,0-6.9,1.2-17.7,4-32.5.6-2.8.9-5,.9-7,0-2.6.4-4.7-2.6-6.5,0,0,9.5-5.3,12.6,8,.3,1.1-1.3,5.8-4,13.1-3.5,9.4-4.5,16.3-4.5,23.5,0,4,1.2,7.9,2.3,11.2,0,0,.3-1.4,2.1-5.5,2.5-5.6,6.9-11.6,6.9-11.6,0,0-5.4,19.5-4.4,26.8ZM55.95,25.34c0-2.5-.4-4.3-1.5-5.1-.4-.3-1.7-.7-2.7-.9,3.5-6.3,14.1-2.5,14.1,2.4,0,.9-.6,2.3-1,4.7-.4.7-.6,3.1-.7,7.2,3.1-.9,5.6-1.9,7-2.9,1.3-1.1,2.5-1.5,3.6-1.5,1.1-.1,2.5.2,4.1,1.1,1.9.9,2.9,2.1,2.9,3.7,0,2.6-6.1,4-17.6,6.4v1.5c.1,10.3.4,18.6,1,25.7l.1,2c5.2,1.4,9.7,2.9,13.4,4.5,4.5,2.5,6.8,5,6.8,7.4,0,2.9-1.5,4.5-4.1,4.2-1.1,0-2.2-.6-4-1.7-3.1-2.3-7.1-4.4-11.6-6.3v-.2c0,4.7-1.3,8.3-3.9,10.4-2.6,2.3-6.8,3.6-12.6,4.1-5.6.2-10.4-1.7-14.4-5.6-1.8-1.8-2.5-3.8-2.5-6.1,0-3.3,1.5-6,4.6-8.1,3.8-2.6,8.1-4,13-4,2.5-.3,5-.3,7.1,0l-.9-26.4c-3.7.8-8.6,1.1-11.6,1.2-6.6.2-11.9-2.9-11-7.7,0,0,5.1,1.4,9.8,1.2,2.8,0,8.2-.4,12.7-1.1-.1-1.3-.1-4.2-.1-8.8v-1.3ZM47.75,74.94c-3.1,0-5.9,1.2-8.3,2.9-1.1.8-1.4,1.5-1.4,2.4,0,.6.1.9.4,1.4,2.4,2.5,5.4,3.7,9.4,3.6,6.5-.3,9.6-3,9.6-8.5v-1.3c-3.2-.6-6.4-.7-9.7-.5ZM93.45,16.54c0,5.8-4.7,10.5-10.5,10.5s-10.6-4.7-10.6-10.5,4.8-10.6,10.6-10.6,10.5,4.8,10.5,10.6ZM89.45,16.54c0-3.6-2.9-6.5-6.5-6.5s-6.5,2.9-6.5,6.5,2.9,6.5,6.5,6.5,6.5-2.9,6.5-6.5Z"/>
</svg>