<?xml version="1.0" encoding="UTF-8"?>
<svg id="_レイヤー_1" data-name="レイヤー 1" xmlns="http://www.w3.org/2000/svg" version="1.1" viewBox="0 0 100 100">
  <defs>
    <style>
      .cls-1 {
        fill: #231815;
        stroke-width: 0px;
      }
    </style>
  </defs>
  <path class="cls-1" d="M59.36,87.55c-6.6,0-11.1-3-12.8-8.7-.8-2.9-.9-7.3-.3-13.7.7-7.3.5-11.2-2.5-11.6-3.8-.5-7.1,2-10.4,5.2-6.3,6.4-10.8,15.2-15,25.3-1.2,2.7-2.8,4.2-4.1,4.2-1,0-2-.6-2.9-1.6-1.4-1.6-2.3-3.4-2.3-5.4,0-1.4,1-3.8,2.8-7.2,9.1-16.4,16.3-29.1,21.5-37.9,5.2-8.6,7.3-13.9,7.8-15.3,2.1-5.2.6-8.5.6-8.5,6-2.5,10,3.3,10,7.6,0,1.2-1,5.2-3.1,7.7-5,7-11.4,16.8-18.9,28.1,5.5-6.2,11.4-9.2,16.1-9.1,7.5.2,10.7,6,9.4,17.7-.8,6.6-.5,11.5.9,13.1.8,1.4,2.2,2.1,4.3,2.1,8,0,16.7-7.7,30.3-22.7,0,0,.5,1.8-.2,3.9-8.6,17.9-18.7,26.8-31.2,26.8Z"/>
</svg>