<?xml version="1.0" encoding="UTF-8"?>
<svg id="_レイヤー_1" data-name="レイヤー 1" xmlns="http://www.w3.org/2000/svg" version="1.1" viewBox="0 0 100 100">
  <defs>
    <style>
      .cls-1 {
        fill: #231815;
        stroke-width: 0px;
      }
    </style>
  </defs>
  <path class="cls-1" d="M31.91,72.05c3,1.8,8.6,2.8,16.6,2.8,8.6,0,15.4-1,21-2.6,1.3-.6,2.5-.7,3.3-.7,2.1,0,4,1,5.4,2.6.8.9,1.1,2,1.1,3,0,2-1.4,3.3-3.9,4-5.8,1.6-14,2.4-24.6,2.4-12.5,0-21-2-25-6-6.7-5.8-6.1-16.2-2.4-21.3,0,0-.6,10.1,8.5,15.8ZM51.82,25.05h-.6c-6.7.3-19.9-1.6-22.8-8.6,9.1,1.4,18.1,1.2,26.7.8,7.8-.3,11.1,2.5,12.3,3.5,1.3,1.5,1.9,3,1.8,4.6-.3,1.8-2,3.3-5,3-8-.9-21.1,6.6-25.6,7.5,4-3.5,8.2-7.2,13.2-10.8Z"/>
</svg>