<?xml version="1.0" encoding="UTF-8"?>
<svg id="_レイヤー_1" data-name="レイヤー 1" xmlns="http://www.w3.org/2000/svg" version="1.1" viewBox="0 0 100 100">
  <defs>
    <style>
      .cls-1 {
        fill: #231815;
        stroke-width: 0px;
      }
    </style>
  </defs>
  <path class="cls-1" d="M36.38,18.14c-.2-1.8-1.6-3.5-3.7-4.3,0,0,2.8-2.4,6.9-2.8,4.7-.4,6.7,2.7,7,5.9.1,1,0,2.1-.5,3.2-.7,1.1-1.3,3.5-2.3,7.1-.3.9-.6,2-.7,2.9.6-.4,1.9-1,3-1.6,1.6-1,3.1-1.4,4.1-1.4,1.9,0,3.6.2,5.2.8.9.8,1.4,1.7,1.5,2.7.4,3.3-4.9,5.2-15.9,7-5.6,18.7-11,33.7-16,45.6-1.4,3.6-3,5.3-4.5,5.3-1,0-2.2-.5-3.1-1.5-1.4-1.3-2-2.8-2.2-4.5-.2-1.9.4-4,2-6.7,5.3-9.3,10.3-21.6,14.9-37.4-2.7.3-4.9.4-6,.4-6.5,0-15.8-3.1-14.3-9.8,3.1,1.7,7.6,3.3,13.4,3.3,2.1,0,5.1-.2,8.8-.6,1.8-7.4,2.6-11.9,2.4-13.6ZM61.08,78.24c4.7,1.6,10,2.1,14.6,1.6,2.2-.1,3.9-.2,4.3-.1,2.1-.1,3.6.5,5,1.5,1.8.9,2.7,2.4,2.6,3.8-.2,3.4-8.2,5.1-20.1,3.1-20.8-3.6-21.7-15.9-13.4-26.8,0,0-3.5,13.5,7,16.9ZM74.18,41.74c-2-1.2-8.2-2.4-14.4-1.1.1-1.8,2.8-4.6,6.4-5.6,7.7-2.1,13.6.1,16.8,1.6,3.6,1.8,5.4,4.4,5.4,8,0,2.9-1.8,3.5-3.8,2.8-3-1-5.4-2.1-8-1.6-3.7.7-10.4,2.4-10.4,2.4,0,0,3.8-3.6,8-6.5Z"/>
</svg>