<?xml version="1.0" encoding="UTF-8"?>
<svg id="_レイヤー_1" data-name="レイヤー 1" xmlns="http://www.w3.org/2000/svg" version="1.1" viewBox="0 0 100 100">
  <defs>
    <style>
      .cls-1 {
        fill: #231815;
        stroke-width: 0px;
      }
    </style>
  </defs>
  <path class="cls-1" d="M20.72,42.9c2,.1,4-.5,6.2-1.8,14.9-9.9,26.2-14.6,34-14.6,6.5,0,11.9,1.4,16,4.5,4.6,3.8,7.1,8.7,7.1,14.7,0,8.5-4.3,15.3-12.7,20.5-7.5,4.6-17,7.3-29.5,7.3-2.8,0-5.2-1.6-5.2-1.6,0,0,39-5.1,38.9-26.2,0-4.5-1.4-8.6-4.4-11-2.6-2.2-6-3.2-10.2-3.2-8.3,0-19.6,6.7-34,18.8-1.5.5-5.8.3-8-1.4-5-3.7-2.1-7.8-2.1-7.8,0,0,1.8,1.8,3.9,1.8Z"/>
</svg>