<?xml version="1.0" encoding="UTF-8"?>
<svg id="_レイヤー_1" data-name="レイヤー 1" xmlns="http://www.w3.org/2000/svg" version="1.1" viewBox="0 0 100 100">
  <defs>
    <style>
      .cls-1 {
        fill: #231815;
        stroke-width: 0px;
      }
    </style>
  </defs>
  <path class="cls-1" d="M48.92,17.76c.3-3.1-1-5.2-4.4-7.1,8.4-5.3,14.8.3,14.8,5.9,0,.8-.5,2.8-1.3,5.6-.5,1.8-3.2,8-5,15.2-1.9,7.1-3.5,12.6-4.3,17.9-.1.7-.1,1.1-.2,1.2.2.1.9.2,1.6.3,3.4.6,4.2,2.6,2.7,5.7-1.3,2.4-3.3,3.5-5,3.1v.8c0,10.8,5.7,16.2,14.1,16.6,4.7,0,8.2-1.9,10.4-5.7,2.3-3.2,2.5-7.1.5-12.1-1.9-4.7-6.6-9.3-13.9-15.9.5-1.3,2.4-1.1,5.3,0,9,3.2,16,10,17.7,17.9,1.7,8,.1,14.3-4.8,18.7-4.7,3.7-9.8,5.6-15,5.6-5.9,0-11.1-2.5-15.3-7.5-3.7-4.3-5.5-10-5.5-17.3,0-.8,0-1.8.1-2.5-12.4-2.8-18.6-9.6-16.6-18.8.7-3.4,3.1-6.6,8.5-9.6l.6-.3c-4.8-3.2-13.1-4.5-16.5-9.5,16-.1,24.6,3,28.5,8.4.1.3.2.5.2.7l1.8-10.2c.7-3.4,1-5.9,1-7.1ZM44.92,42.26l.5-2.3c-.2.6-2.4.9-5.6.4-1.4-1-4-1.3-5.8-.2-2.9,1.7-4.5,3.5-4.8,5-.5,4.5,4.5,8,13.3,9.9.1-.7.3-2.6.7-5.2l1.7-7.6Z"/>
</svg>