<?xml version="1.0" encoding="UTF-8"?>
<svg id="_レイヤー_1" data-name="レイヤー 1" xmlns="http://www.w3.org/2000/svg" version="1.1" viewBox="0 0 100 100">
  <defs>
    <style>
      .cls-1 {
        fill: #231815;
        stroke-width: 0px;
      }
    </style>
  </defs>
  <path class="cls-1" d="M41.65,11.97c7-5,13.9-3,13.9,3,0,.1,0,.8-.2,2.2-.5,2.6-.7,6-.8,9.7,1.1-.3,2.8-1,4-1.7,1.7-1,2.9-1.6,4.6-2,3.9-.3,5.5.9,5.5,3.5.2,2.4-4,3.6-12.2,6.2-1.2.2-2,.4-2,.4l.1,12.4c2.3-.4,4.4-1,5.9-1.5,1.7-.7,4.1-1.4,7.6-2.8l3-1.2c2.1-.1,3.9.6,5.7,2,.9.7,1.6,1.5,1.9,2.6,0,2.5-3.8,3.2-9.5,4.4-5.5,1.1-10.1,2.3-14.5,3,.1.4.1.9.1,1.3l.5,12.1.3,2.3c8.8,2.8,15.1,5.5,18,8.1,3.2,2.5,4.8,4.8,4.8,6.9,0,2.9-1.5,4.5-4.4,4.5-1,0-2.2-.7-3.4-1.9-4.5-4-9.5-7.2-14.6-9.5v1.8c0,7.4-5.5,11.8-16.1,12.9-5.8.6-10.6-.2-14.3-2.3-2.7-2.1-4.2-4.7-4.2-7.8,0-3.6,1.6-6.5,4.8-8.8,3.3-2.7,7.7-4,13.1-4.5,2.7-.5,5.5-.6,8.4-.5l-.5-13.6c-5.2.6-9.7.8-10.8.8-10.2-.4-14.5-2.9-13.2-11.6,0,0,3,5.2,11.2,5.2,3,0,8.8-.2,12.7-.9-.1-2.8-.1-4.5-.1-5.2l-.4-7.4c-8.4.6-13.2-.5-16.2-2.5-4.7-3.1-1.5-9.1-1.5-9.1,4.1,4.6,10,6.5,17.6,5.5l-.1-2.1c-.2-4.5-.3-11.6-4.7-13.9ZM38.05,73.37c-7.3.8-10.8,3.3-10.8,6.7,0,1.3.6,2.1,1.8,2.7,2.8,1.1,5.7,1.6,9.3,1.2,3.6-.5,6.1-1.5,7.5-3,1.2-1.2,1.8-3.4,1.8-7.2-3.5-.5-6.8-.8-9.6-.4Z"/>
</svg>