<?xml version="1.0" encoding="UTF-8"?>
<svg id="_レイヤー_1" data-name="レイヤー 1" xmlns="http://www.w3.org/2000/svg" version="1.1" viewBox="0 0 100 100">
  <defs>
    <style>
      .cls-1 {
        fill: #231815;
        stroke-width: 0px;
      }
    </style>
  </defs>
  <path class="cls-1" d="M33.16,23c-.1-2-.1-3.8-.1-5.1,0-3.2-1.4-4.8-4.2-6.6,4.6-5.6,14-1.5,13.7,2.6-.1,1-.4,2.2-.8,3.1-.2.9-.7,2.8-1.3,6,1-.3,3.7-1.5,5.9-2.6,1.3-.6,2.5-1,3.2-1,1,0,2.4.4,3.9,1.2,1.5.9,2.5,2.2,2.5,3.8,0,3-5.4,5.3-16.2,6.9-.2,1.1-.7,4.5-1.1,13.3,1.6,2,1.9,5.6,1.9,7.8,0,2.5-.7,6-1.8,10.2-2.2,7.5-3.3,13-3.3,16.9,0,2.8,3.9,4.3,12.2,4,6.3-.2,11.4-1.3,15.7-3.5.9-.2,1.2-1.2,1.2-3.1,0-3-.9-9.2-3-18.6-1.8-11.6.6-19.6,7.5-24,7.6-3.9,13.2-3.1,16.7,2.4,3.3,5.3-.8,16.8-6.3,14.7-2.7-1-7.9.8-9.6,0,0,0,9.3-2.8,7.1-9.8-.8-2.6-3.2-3.6-7.1-1-3,2.6-5.2,9.2-3.1,17.2,2.2,8.3,4.6,13.3,6.1,15.9.6,1.5,1.5,3.5,2.4,5.9,1.1,2.4-.6,5.1-4.5,7.5-4.4,2.5-11.3,4-20.6,4.3-15.2.4-23-3.4-23-11.6,0-3,1.1-8.9,2.7-12.8-1.9,2.2-4.4,4-7,4-5.8,0-9-3.7-9.1-10.7.1-5.5,1.7-10.1,4.7-13.7,3-3.9,6.8-5.9,11.2-5.9,1.7,0,2.8.1,2.8.1,0,.1.1-2.4.2-8.8-2.6.3-5,.5-6.6.5-6.9,0-12.8-1.7-13-10.3,0,0,5.4,3,11.8,3,2.7,0,5.5-.3,8.2-.8l.1-1.4ZM30.26,45.6c-3.4,0-6.1,1.6-7.9,4.9-1.2,2.2-1.8,4.8-1.8,7.7s1,4.1,3.4,4.1c4.6,0,7.4-4,8.6-12.1,0-3.2-.8-4.6-2.3-4.6Z"/>
</svg>