<?xml version="1.0" encoding="UTF-8"?>
<svg id="_レイヤー_1" data-name="レイヤー 1" xmlns="http://www.w3.org/2000/svg" version="1.1" viewBox="0 0 100 100">
  <defs>
    <style>
      .cls-1 {
        fill: #231815;
        stroke-width: 0px;
      }
    </style>
  </defs>
  <path class="cls-1" d="M49.41,22.97c-1.8-2.7-2.2-3.3-2.6-3.8-4.7-6.8-8.2-6.9-8.2-6.9,0,0,.3-5.9,7.6-4.1,3.9,1,6.7,1.8,7.7,5.5,1.3,4.7,2.3,6.9,3.2,9.5,1.8-.6,3.7-2.2,5.1-2.5,2.9-.7,4.3.3,4.3,2.8.1,2.4-2.3,4.4-6.9,5.8,0,0,2.6,5.7,5.2,10.8,0,0,4.4-1.9,6.6-3.8,1.4-1.2,2.8-2.3,4.5-2.3,4.1,0,6.3,1.3,6.3,3.7,0,3.5-5,6.6-14,9.2,1.6,3.4,3.6,8,4.8,13.7,1,6.7-.1,10.6-3,10.8-4.6.3-5.2-.5-11-1.9-5.2-1.3-10.2-2.2-14-2.4-8-.4-12.7,2.4-14,7.2-1.4,5.1,3.3,8.8,13.3,8.8,2.4,0,4.6-.6,6.8-1.3,1.2-.2,2.1-.3,2.9-.3,1.2,0,2.5.4,3.9,1,1.9,1.3,3.2,2.5,3.5,3.7,1.1,4.1-3.6,6.1-13.5,6-15.1-.1-26.1-6.3-23.3-17.9,2.2-8.7,8.9-12.8,20.5-12.1,3,.1,7.4.8,13.2,1.5,4.4.6,6.2-.5,5.8-3-.4-3.8-2-7.9-3.5-11.6-7.8,2.1-17,3.3-26.7,3.3-11.1,0-17.1-5.9-16-13.4.2-1.9,1.5-2.3,1.5-2.3,0,0,1.6,8,13.6,8.7,10.1.6,18.3-1.1,25.2-2.8-2.1-4.6-3.4-8.2-5.1-11.2-14.2,4.5-23.9,2.7-29.3-5.1-1.8-2.6-.4-4.8-.4-4.8,0,0,7.2,9.3,27.4,4.4l-1.4-2.9Z"/>
</svg>