<?xml version="1.0" encoding="UTF-8"?>
<svg id="_レイヤー_1" data-name="レイヤー 1" xmlns="http://www.w3.org/2000/svg" version="1.1" viewBox="0 0 100 100">
  <defs>
    <style>
      .cls-1 {
        fill: #231815;
        stroke-width: 0px;
      }
    </style>
  </defs>
  <path class="cls-1" d="M32.41,24.3c0-8.4-4.3-9.8-4.3-9.8,6.4-5.1,14.5-3.1,14.2,3.9-.1,1-.3,1.8-.5,2.6-.4,3.3-1,7.1-1.2,11,2.4-.8,5.2-2.3,7.9-4.6,1.8-1.2,3.3-1.6,4.3-1.6,1.9,0,3.9.6,5.5,2.2.7.8,1.2,1.6,1.2,2.2,0,3.3-6.6,6.5-19.2,9.7v19.9c7.8-5.1,15.4-7.8,23-7.8,5.9,0,10.9.9,15,3.9,4.1,3.2,6.2,7.4,6,12.6-.2,5-2.9,9.4-7.7,13-3.9,3-9,4.4-14.8,4.4-13.2-.1-17.2-7.7-17.5-8.5,0,0,6.8,3.3,15,2.2,3.7-.4,7.1-1.4,10-3,3.5-2.5,5.2-5.9,5.3-8.9.3-3.2-.8-5.5-3.3-7.5-2.2-1.4-5.3-2.3-9.3-2.3-6.3,0-13.5,3-21.7,8.1v9.2c0,4.2-.9,7.5-2.9,9.2-3.5,4.7-7.1,5.2-10.1,1.5l-8-9c-3.7,1.5-13.3,2.5-12.1-5.3,0,0,6.3,4,25.1-7.2l.1-23.4c-1.5.3-4,.5-6.6.5-6.6.1-11.9-2.8-15.6-8.3-1.1-1.2-1.3-2.6-1-3.9,0,0,7.9,5.1,16.6,5,2.9-.1,5.2-.2,6.6-.5v-9.5ZM31.01,79.21c.7-1.8,1.2-4.5,1.2-8.8-1.8,1.3-4.3,2.7-7.7,4.9,3,3,5.7,3.4,6.5,3.9ZM78.62,33.9c5.8-.3,10.1.9,12.5,3.6,2.4,2.9,2.4,4.7-.2,6.5-1.7,1-3.8.9-6.3-.2-9.8-4.9-30.6,1.7-30.6,1.7,11-8.6,18.9-11.5,24.6-11.6Z"/>
</svg>