<?xml version="1.0" encoding="UTF-8"?>
<svg id="_レイヤー_1" data-name="レイヤー 1" xmlns="http://www.w3.org/2000/svg" version="1.1" viewBox="0 0 100 100">
  <defs>
    <style>
      .cls-1 {
        fill: #231815;
        stroke-width: 0px;
      }
    </style>
  </defs>
  <path class="cls-1" d="M36.31,70.16c-1.2,6-4.5,7-9.2,2.6-3.5-3.2-6-7.7-7.2-13.2-1.2-4.9-1.7-12-1.8-21.8,0-3.2-.5-10.1-2.7-12.8,5.6-1.8,11.3,2.2,11.3,7.2,0,.8-.1,1.9-.4,3.5-.8,3.9-1.4,7.7-1.4,11.6,0,8.1,1.5,13.9,4.5,17.3q.1.3.2.3c.1,0,2.6-1.9,5.1-5.5,5.4-7.2,7.6-9.6,7.6-9.6-1.5,5.9-4.9,14.3-6,20.4ZM81.81,43.26c2.4,5.1,3.3,9.5,2.5,13.2-.7,4-2.6,5.8-5.8,5.1-2-.4-3.1-2.4-3.2-5.6.8-4.1.1-8.1-2.1-12.3-3.7-7-12.5-9.7-12.5-9.7,4.5-3,16.4,1.7,21.1,9.3Z"/>
</svg>