<?xml version="1.0" encoding="UTF-8"?>
<svg id="_レイヤー_1" data-name="レイヤー 1" xmlns="http://www.w3.org/2000/svg" version="1.1" viewBox="0 0 100 100">
  <defs>
    <style>
      .cls-1 {
        fill: #231815;
        stroke-width: 0px;
      }
    </style>
  </defs>
  <path class="cls-1" d="M37,41.21c1.4-.5,3.8-1.9,7.3-4.2,3.5-2.2,6.9-3.2,10.2-3.1,5.1.1,9.1,2.2,12,5.8,3.3,3.7,5.1,8,5.1,13.4,0,9.7-4.1,17.6-11.6,24.2-5.3,4.7-18,11.7-26.5,10.3,7.3-2.4,17.4-10.2,22-14.9,5.3-5.6,8.1-12.1,8.1-19.6,0-4.3-.9-8.4-2.9-10.9-1.6-2.3-3.4-3.3-5.7-3.3-2.2-.1-4.2.4-6.7,2.1-2.8,1.9-5.1,4.3-7.1,6.1-1.2.6-2,1.3-2.8,1.4-6.6,2.5-11.8-1.8-9.4-9.5,0,0,2.4,4.1,8,2.2ZM45.4,22.51c-2.6,0-10.4-6.5-9.8-10.3,0,0,10.3,4.2,13.3,4.7,1.8.3,3.1.5,6,.6,4.5.2,7.3.6,7.4,3.9.1,2.1-1.2,3.7-3,3.9-.2,0-.8.1-1.6-.1-1.7-.4-3.2-.2-4.6-.3-6.4-.2-14.6,5.1-14.6,5.1,2.1-3.6,5-5.7,6.9-7.5Z"/>
</svg>