<?xml version="1.0" encoding="UTF-8"?>
<svg id="_レイヤー_1" data-name="レイヤー 1" xmlns="http://www.w3.org/2000/svg" version="1.1" viewBox="0 0 100 100">
  <defs>
    <style>
      .cls-1 {
        fill: #231815;
        stroke-width: 0px;
      }
    </style>
  </defs>
  <path class="cls-1" d="M38.61,14.86c.3-2.3-2.4-3.4-2.4-3.4,0,0,.8-1.5,4.4-2.8,2.9-1,8.3.4,8.1,4.2-.1,1-.7,3.4-3.8,10.6l2.5-.9c1.1-.8,2.4-1.4,3.7-1.7,1.7-.2,3.3.3,4.5,1.4,1,.8,1.2,1.5,1.2,2.6,0,2.9-4.4,3.6-14.2,5.7l-.2.6c-5.5,14.5-11.7,26.5-19.5,38.5-1.5,2.3-3.1,3.5-4.5,3.5-2.9,0-4.7-2-4.7-6,0-1.7,1.1-3.7,2.8-5.6,7.2-8.9,12.6-18.2,17.2-29.9-1.7.3-3.6.5-5.1.5-4.9.2-13.8-2.3-11.7-10.9,0,0,5.4,4.2,9.8,4.6,3.3.3,6.3,0,9.5-.8,1.5-5,2.2-8.5,2.4-10.2ZM36.51,80.67c0-3.2,1.2-5.8,3.6-7.9,3.2-2.9,7.1-4.6,11.6-4.9,2.6-.1,4.6-.1,5.9.1l-.3-14.6c.1-3.3,2.1-9,6.2-12,2.1-1.9,7.2-4.2,7.2-4.2-2.6-1.7-10.1-3-15.7-2.1,0,0,2.4-3.5,8.4-4.4,6.2.3,11.4.3,18,4.5,2.7,1.7,4.5,4.7,4.8,7.1.5,3.4-1.3,4.8-4,4.8-1.3,0-3.1-2.9-4.8-4.4-4.2-3.8-8.6,0-10.4,1.6-2.3,2.6-2.7,6.5-2.1,9.7.6,6.1,1,12.9,1.2,15.3,3.1.8,7.1,2.1,11.2,4.1,4.7,2.5,7,5,6.9,7.7-.1,2.9-1.6,4.6-4,4.7-1.4,0-3-.6-4.5-2.3-3.5-2.8-6.8-4.8-9.4-6v.8c-.2,8.1-5.2,12.7-14.8,13.3-4.6.4-8.5-.7-11.9-3.7-2.2-2-3.3-4.4-3.1-7.2ZM51.51,74.57c-2.9.4-9.4.9-9.9,5.9,0,.3-.3,4.4,8.6,4.2,2.9-.1,5.4-1.5,6.3-2.5.9-.9,1.4-2.4,1.5-4.2v-1.8l-.1-1.2c-1.7-.4-3.9-.5-6.4-.4Z"/>
</svg>