<?xml version="1.0" encoding="UTF-8"?>
<svg id="_レイヤー_1" data-name="レイヤー 1" xmlns="http://www.w3.org/2000/svg" version="1.1" viewBox="0 0 100 100">
  <defs>
    <style>
      .cls-1 {
        fill: #231815;
        stroke-width: 0px;
      }
    </style>
  </defs>
  <path class="cls-1" d="M46.1,20.96c-.6-3-2.6-3.6-2.6-3.6,3.9-4.3,11.5-1,11.5,4.1,0,.1,0,.7-.1,1.8-.6,2.5-.7,5.1-.8,8.4v3c1.3,1.3,3.6,1.8,6.8,1.6,1.8,0,3.3-.5,5.2-1.6,1.1-.5,1.9-.6,2.6-.6,1,0,2.2.2,3.4.9,1.5.7,2,1.3,2.1,2.7.3,2-4.2,3.2-13.3,4.1-3.7.3-6.2-1.3-6.7-1.5l.5,22.8.3,2c8.1,2.4,13.8,4.7,16.4,6.9,2.9,2.1,4.3,4,4.3,5.8,0,2.4-1.3,3.9-3.7,3.9-.9,0-2-.7-3.1-1.6-4.2-3.5-8.6-6.3-13.5-8.1v1.3c0,6.5-4.8,10.2-14.5,11.2-5.1.5-9.5-.2-12.9-2.3-2.4-1.6-3.7-3.7-3.7-6.2,0-3.1,1.5-5.6,4.3-7.8,3.2-2,7-3.3,11.8-3.7,2.5-.4,5.3-.4,7.6-.4l-1-33.3c-.2-4.6-.5-7.8-.9-9.8ZM39.2,69.97c-6.7.7-10,2.6-10,5.4,0,1.2.5,1.7,1.8,2.3,2.5,1.1,5.2,1.3,8.4,1.1,3.3-.5,5.8-1.4,6.9-2.6,1.3-.9,1.8-2.9,1.8-5.8-3.2-.5-6.1-.7-8.9-.4Z"/>
</svg>