<?xml version="1.0" encoding="UTF-8"?>
<svg id="_レイヤー_1" data-name="レイヤー 1" xmlns="http://www.w3.org/2000/svg" version="1.1" viewBox="0 0 100 100">
  <defs>
    <style>
      .cls-1 {
        fill: #231815;
        stroke-width: 0px;
      }
    </style>
  </defs>
  <path class="cls-1" d="M39.32,15.36c1-3.8-2.8-6.6-2.8-6.6,7.1-3,11.5-1.1,11.9,3.8.2,1.6-1.1,5.6-3.9,10,.9-.3,2-.9,3-1.6,2-1.4,3.3-1.9,4.3-2.1,1.4-.1,6.2-.1,6.2,2.1,0,1.7-1.3,3.1-3.8,4.5-4.2,2-8.7,3.7-12.4,4.4-4.8,8.3-7.7,13.6-9.6,16.4.4-.6,3.6-3.1,6.8-3.1,3.7,0,6.3,2,7.8,5.7,4.9-11.8,18-19.7,27.3-17.6,13.6,3.1,10.5,14.2,3.6,17.6-10.8,4.9-19.2,8.9-28.8,14.4.1,1.9.2,5,.2,7.9,0,2.2-.4,4-1.6,5.8-1.1,1.4-2.8,2.5-4.2,2.5-3.1,0-3.4-2.4-3.1-6.9.2-2.2.4-3.5.5-5-6,4.4-8.7,8.5-8.7,12.4,0,3.6,6.1,4.8,14.3,4.1,5.8-.5,8.6-1.4,12.9-2.7,1.5-.5,2.7-.6,3.5-.6,1.7,0,2.9.3,4.2,1.1,1.6,1.6,2.7,3.1,2.7,4.7,0,3.7-7,5.8-19.4,6.1-15.5.3-24.3-3.8-24.3-12.3,0-6.8,4.8-13.6,15.1-20.4,0-7.5-2.1-10.9-4-10.9-3-.3-7.1,1.9-12.2,10.4-1.2,2.1-2.5,3.1-3.8,3.2-1.8.2-4.9-2.1-4.6-5.8.1-1.7,1.7-4.2,4.8-7.8,5.1-5.9,8.6-11.3,12.5-18.8h-.5c-6.7.2-9.4-1-12.2-3.1-2.3-1.9-2.7-7.7-2.7-7.7,0,0,6.6,4.8,14.5,4.5,1.6-.1,2.5-.3,3.4-.5,2-3.8,2.7-6.6,3.1-8.1ZM71.42,36.36c-6.3-1.3-20.5,7.2-22.5,19.3,8.1-6.1,16.2-10.3,23.2-14,2.9-1.5,1.7-4.8-.7-5.3Z"/>
</svg>