<?xml version="1.0" encoding="UTF-8"?>
<svg id="_レイヤー_1" data-name="レイヤー 1" xmlns="http://www.w3.org/2000/svg" version="1.1" viewBox="0 0 100 100">
  <defs>
    <style>
      .cls-1 {
        fill: #231815;
        stroke-width: 0px;
      }
    </style>
  </defs>
  <path class="cls-1" d="M14.9,26.3c1.3-.2,4.9-.6,10.9-1.9,3.3-.5,5.5-1.6,6.7-3.3,1.3-1.4,2.5-1.9,3.8-1.9s3.1.6,5.3,2.4c1.4,1.2,2.1,2.5,2.1,3.7-.1.9-1,2.5-2.9,4-16.3,14.9-25.3,27.9-26.1,39-.6,5.7,1.5,9.6,4.6,12.7,3.2,2.9,7.1,4.3,11.9,4.3s10.2-2.5,15.8-7.9c5.3-5.7,9-13.6,10.8-23.8,1.2-6.4,1.4-13.3.7-20.6-.6-7.2-1-11.6-1.2-13.2.1-2.3,2.2-3.4,5.2-3.4,2.5,1.2,3.8,3.3,3.7,6.2.4,6.2,2.6,14.6,6.7,25.6,1.7,5.7,4.2,10.5,7.3,14.7.1,0,.5.4.8.8.4.3.7.8.8.9,1.7,2.2,2.1,4.5,1.5,6.9-1.6,3.2-3.4,4.9-5.6,4.5-1.5,0-3.5-2.1-5.4-6.3-2.4-4.6-6-16.3-7.9-24.6,0,3.9-.3,8.5-1.1,12.3-2,11.3-5.1,20.2-11.3,26.4-6.9,6.7-13.8,10.2-20.9,10.5-6.7.4-12.3-1.9-16.8-6-4.9-4.9-6.5-11.6-6-19.2.6-8.1,3.4-15.9,9.9-25.2,3.7-5.1,9.2-11.9,11.7-15.2-7.8,2.8-14.8,6.4-15.9,6.4-1.4,0-2.6-.8-3.8-2.2-.9-.8-2.3-2.5-3.1-7.4,0,0,3.4,1.6,7.8.8ZM84.01,22.9c0,2.4-1.1,3.8-3.3,3.8-.9,0-2-.8-3-2.3-4.5-7.7-11.3-11.7-11.3-11.7.3-.3,2-.7,2-.7,7.8,1,15.6,5.2,15.6,10.9ZM92.81,12.5c.4,2.4-.5,4-2.6,4.7-.9.2-2.1-.3-3.4-1.6-5.8-6.3-13.2-8.5-13.2-8.5.2-.4,1.8-1.2,1.8-1.2,7.8-1,16.3,1.1,17.4,6.6Z"/>
</svg>