<?xml version="1.0" encoding="UTF-8"?>
<svg id="_レイヤー_1" data-name="レイヤー 1" xmlns="http://www.w3.org/2000/svg" version="1.1" viewBox="0 0 100 100">
  <defs>
    <style>
      .cls-1 {
        fill: #231815;
        stroke-width: 0px;
      }
    </style>
  </defs>
  <path class="cls-1" d="M67.23,64.93c0-3-.9-5.6-2.7-7.8-2.6-2.5-6.5-4.6-10.4-4.6-7.1.2-12.5,2.8-16.5,6.4-3,2.7-5.1,5.8-6.3,9.9-.5,1.7-1.5,2.3-2.7,2.3-3.2,0-5-3.8-5.7-10.9-.6-9.8,4.2-29.4,7.7-31.7,0,0,4.2,5.9,3,14.4-2.3,5-3.3,10.1-2.9,15.1.2-.1,1-.6,2.2-1.8,6.3-6.2,13.9-9.2,22.5-9.2,7.3,0,13.1,2.2,17.1,6.7,3,3.2,4.6,7.2,4.6,11.4,0,15.2-14.8,24.2-42.7,25.6-2.3.1-4.7-.2-6.4-1.7,25.9-5,39.2-13.8,39.2-24.1ZM43.32,17.33c-3.8-2.6-7.6-3.5-12-5.2-1.9-.7-2.6-1.9-2.6-1.9,9-2.3,18.6,0,21.8,1.5,3.6,1.8,5.4,4.4,5.4,8,0,2.9-1.2,4.4-3.3,4.2-.6,0-1.5-.1-2.4-.4-1-.2-2.9-1.4-4.1-1.4-3.8,0-8.1,1.6-12.9,3.3,1.5-2.7,7.8-6.9,10.1-8.1Z"/>
</svg>