<?xml version="1.0" encoding="UTF-8"?>
<svg id="_レイヤー_1" data-name="レイヤー 1" xmlns="http://www.w3.org/2000/svg" version="1.1" viewBox="0 0 100 100">
  <defs>
    <style>
      .cls-1 {
        fill: #231815;
        stroke-width: 0px;
      }
    </style>
  </defs>
  <path class="cls-1" d="M30.24,33.85c-3.4-5.5-1.1-8.5,6.4-10.2,2.9-.5,6.8-.3,11,1-.8-4.1-6.9-7.9-14-8.2.2-1,1.4-1.7,3.4-1.9,7.1.2,12.6,1.5,16.1,3.5,2.8,1.7,4.3,3.6,4.5,5.8.1,1.8-.6,3.2-1.9,4.4-.9.5-3.4,2.1-8.6.4-2.2-.9-6.6-1.6-9.2-1.1-2.1.4-4.4.9-2.9,3.5.8,1.6,2.8,4.4,3.9,6.1,11.7-5.6,20.8-8.4,27.5-8.4,4.9,0,9.2,1.4,12.8,4.1,3.4,2.9,5.5,6.5,5.8,10.7.2,4.7-1.8,8.2-5.5,11.3-3.1,2.9-6.7,4-11.2,4-7.8-.2-13.8-3.1-17.8-8-1.5-1.2-1.3-4-1.3-4,0,0,7.5,6.7,16.5,6.5,2.9-.1,5.3-.8,7.3-2.1,3-1.6,4.3-4.3,4.1-7.7-.2-2.9-1.5-6.2-3.9-7.7-1.9-1.4-4.5-2.3-7.6-2.3-5.7,0-13.6,2.9-23.8,9.4,10,18.6,13.6,28.4,15.3,31.9.8,1.7,1.1,3.3,1.2,4.6.3,4-1.1,6-3.9,6-1.8,0-3.5-2.1-4.8-6.1-5.3-15.2-9.8-26.3-13.3-33.2-3.4,2.2-6.5,4.1-9,5.6-1.5.8-2.8,1.4-4,1.4-3,0-8.2-1.9-8.4-5.8,0,0,6-.1,18.4-7.5-.8-2-2-4.1-3.1-6Z"/>
</svg>