<?xml version="1.0" encoding="UTF-8"?>
<svg id="_レイヤー_1" data-name="レイヤー 1" xmlns="http://www.w3.org/2000/svg" version="1.1" viewBox="0 0 100 100">
  <defs>
    <style>
      .cls-1 {
        fill: #231815;
        stroke-width: 0px;
      }
    </style>
  </defs>
  <path class="cls-1" d="M34.74,39.64c1.6-.6,4.4-2.2,8.6-4.9,4.1-2.6,8.1-3.8,12-3.6,6,.1,10.6,2.5,14.1,6.8,3.9,4.3,6,9.4,6,15.8,0,11.4-4.8,20.6-13.7,28.4-6.2,5.6-21.1,13.8-31.1,12.1,8.5-2.8,20.4-12,25.8-17.5,6.3-6.6,9.5-14.2,9.5-23,0-5.1-1-9.9-3.3-12.9-1.9-2.7-4.1-3.9-6.8-3.9-2.5-.1-4.9.5-7.9,2.5-3.2,2.3-6,5.1-8.3,7.2-1.4.7-2.4,1.5-3.3,1.6-7.7,3-13.9-2.1-11.1-11.2,0,0,2.9,4.9,9.5,2.6ZM44.64,17.73c-3.1,0-12.3-7.7-11.6-12.2,0,0,12.1,5,15.7,5.5,2.1.4,3.6.6,7,.8,5.3.2,8.6.7,8.7,4.6.1,2.4-1.4,4.3-3.5,4.5-.2,0-.9.1-1.9-.1-2-.4-3.7-.2-5.4-.3-7.5-.3-17.2,6-17.2,6,2.5-4.3,5.9-6.7,8.2-8.8Z"/>
</svg>