<?xml version="1.0" encoding="UTF-8"?>
<svg id="_レイヤー_1" data-name="レイヤー 1" xmlns="http://www.w3.org/2000/svg" version="1.1" viewBox="0 0 100 100">
  <defs>
    <style>
      .cls-1 {
        fill: #231815;
        stroke-width: 0px;
      }
    </style>
  </defs>
  <path class="cls-1" d="M32.64,47.56s-8.2,25.6-7.4,29.6c1.1,5.7-3.8,7.1-7,2.2-3.1-4.7-5.5-11.6-5.9-22.5,0-6.3,1.4-15.9,4-29.4.6-2.4.9-4.3.9-6,0-2.4-1-4.2-2.8-5.4,0,0,7.5-5.2,13,5.3,1,1.8-1.3,6.5-3.5,13.3-2.8,8.8-4.2,16.3-4.2,22.6,0,3.7.5,6.9,1.4,9.7,0-.1,2.2-4.8,3.9-8.4,4.6-9.8,7.6-11,7.6-11ZM58.04,13.26c-.7-2.5-2.2-4-5.7-4.5,0,0,1.6-2.8,4.7-3,5.2-.3,8.4,1.7,10.8,4,1.7,1.6-.2,5.2.7,19.3,3.1-.6,5.9-1.9,8-3.4,1.4-1.1,2.8-1.5,3.9-1.9,1.7,0,6.8,1.1,7.2,4,.4,2.7-6.4,5.7-18.8,8.7.1,2.1.1,5.9.1,11.3,0,14.1-2.9,25-7.5,31.2-5.2,6.9-18.9,15.1-28.6,15.3,0,0,14.1-6.1,23.7-23.7,2.8-5.1,3.7-14.6,3.7-26.6,0-3.5,0-5.7-.1-6.2-1,.3-3.5.5-7.5.7-5.6-.1-15-2.5-13.8-9.8,0,0,5.8,3.4,13.6,3.4,3.7-.3,6.3-.6,7.7-.9-.5-9.1-1.4-15.1-2.1-17.9Z"/>
</svg>