<?xml version="1.0" encoding="UTF-8"?>
<svg id="_レイヤー_1" data-name="レイヤー 1" xmlns="http://www.w3.org/2000/svg" version="1.1" viewBox="0 0 100 100">
  <defs>
    <style>
      .cls-1 {
        fill: #231815;
        stroke-width: 0px;
      }
    </style>
  </defs>
  <path class="cls-1" d="M36.89,24.92c-1.9-2.9-6-5.5-9-5.4,1.2-4.9,4-5.5,5.9-5.6,4-.2,7,1.6,8.7,5.2,2.6,4.7,4.9,8.3,6.6,11,4.9-1.7,6.9-3.1,8.8-5.4,1.4-1.3,2.9-1.8,4.5-1.9,4.1-.2,6.4.9,6.8,3.4.4,3.2-4.2,6.7-15.8,10.4,8.2,11.4,12.7,19.8,14.3,25.6,1.3,6.3,1,10.3-1.1,11.6-2.2,1.2-5.1.9-7.2-1.1-2.1-2-8.1-4-18.8-6.4-12.6-2.8-19.3,1.2-20.5,7.2-1.1,5.6,4.7,11.2,20.9,11.2,2.4,0,4.7-.3,6.8-1.3,1.3-.1,2.3-.1,3.1-.1,1,0,2.4.2,3.9,1,2,1.2,3.3,2.4,3.7,3.6,1.4,4-3.2,6-13.2,6-24.3,0-34.5-10-31.5-21.2,2.5-9.4,10.8-14.1,26.7-11.4,3.3.5,8.5,1.6,15,3.4,2.7.6,3.7-.2,3.1-2.8-.7-3.8-4-11-12-22.5-4.9,2-12,3.5-18.3,3.8-11.1.8-17.8-4-19.3-12,0,0,6.5,4.7,17.9,4.6,6.3,0,12.4-1.6,15.4-3l-4-5.8c-1-1.4-1.4-2-1.4-2.1ZM81.29,23.32c0,2.4-1.2,3.8-3.7,3.8-1,0-2.1-.8-3.3-2.3-5-7.7-12.4-11.7-12.4-11.7.4-.3,2.2-.7,2.2-.7,8.5,1,17.2,5.2,17.2,10.9ZM90.89,12.92c.5,2.4-.5,4-2.8,4.7-1,.2-2.3-.3-3.8-1.6-6.4-6.3-14.5-8.5-14.5-8.5.3-.4,2-1.2,2-1.2,8.6-1,17.9,1.1,19.1,6.6Z"/>
</svg>