<?xml version="1.0" encoding="UTF-8"?>
<svg id="_レイヤー_1" data-name="レイヤー 1" xmlns="http://www.w3.org/2000/svg" version="1.1" viewBox="0 0 100 100">
  <defs>
    <style>
      .cls-1 {
        fill: #231815;
        stroke-width: 0px;
      }
    </style>
  </defs>
  <path class="cls-1" d="M26.74,30.95c-4-6.4-1.3-10,7.5-11.9,3.4-.6,8-.4,13,1.1-1-4.8-8.1-9.3-16.5-9.6.2-1.2,1.6-2,4-2.3,8.4.3,14.8,1.8,18.9,4.2,3.3,1.9,5.1,4.2,5.3,6.8.1,2.1-.7,3.8-2.2,5.2-1,.6-4,2.4-10.1.4-2.6-1-7.8-1.9-10.8-1.3-2.5.5-5.2,1.1-3.5,4.1,1,1.9,3.3,5.2,4.6,7.2,13.8-6.6,24.5-9.8,32.4-9.8,5.8,0,10.8,1.6,15,4.8,4.1,3.4,6.5,7.6,6.9,12.6.2,5.5-2.2,9.6-6.5,13.2-3.6,3.5-7.9,4.7-13.2,4.7-9.1-.2-16.2-3.6-20.9-9.3-1.8-1.5-1.6-4.8-1.6-4.8,0,0,8.9,7.9,19.5,7.7,3.4-.1,6.2-.9,8.6-2.5,3.5-1.9,5-5,4.8-9.1-.3-3.3-1.8-7.2-4.6-9-2.3-1.7-5.3-2.7-8.9-2.7-6.8,0-16.1,3.4-28.1,11.1,11.8,21.8,16,33.4,18.1,37.5.9,2,1.3,3.9,1.4,5.4.3,4.7-1.3,7.1-4.6,7.1-2.1,0-4.1-2.5-5.7-7.2-6.2-17.9-11.5-31-15.6-39.1-4,2.6-7.7,4.8-10.6,6.6-1.8,1-3.3,1.7-4.7,1.7-3.6,0-9.7-2.3-9.9-6.9,0,0,7.1-.1,21.7-8.8-1-2.4-2.4-4.8-3.7-7.1Z"/>
</svg>