<?xml version="1.0" encoding="UTF-8"?>
<svg id="_レイヤー_1" data-name="レイヤー 1" xmlns="http://www.w3.org/2000/svg" version="1.1" viewBox="0 0 100 100">
  <defs>
    <style>
      .cls-1 {
        fill: #231815;
        stroke-width: 0px;
      }
    </style>
  </defs>
  <path class="cls-1" d="M33.19,23.57c-.3-2.8-.7-4.6-1.3-5.2-.5-.5-2.1-2.1-4.6-2.9,1.3-2.8,5.7-3.9,7-3.8,5.9.1,8.9,2.9,8.8,8.2,0,.2-.1,1.1-.4,2.8,0,.5,0,1.5-.1,2.7,0,2.3,0,6.7.2,10.8,1,6.6,2.4,9.4,4.1,9,.9-.4,4.3-1.9,10.3-3.8,5.6-1.6,8.9-.7,9.6,2.4.7,3.2-.8,5.4-4.7,6.1-7,.9-15.3,3.6-24.5,7.8-9.3,4.3-13.9,8.9-14,14.3,0,6.3,6.3,9.3,19.3,9.3,7,0,12.7-.8,17.6-2.5,2.2-.5,3.6-.9,4.6-.9,1.7,0,3.5.7,5,2,1.4.9,2.2,2.2,2.2,3.6,0,2.3-2,3.7-5.2,4.2-5.6,1.4-12.4,1.9-20.8,1.9-19.7,0-29.4-5.7-29.4-17.3,0-7.5,7.6-15.5,24.6-24.5-5.4-1.1-7.7-9.3-8.3-24.2ZM72.79,27.67c0,2.4-1.3,3.8-3.9,3.8-1.1,0-2.3-.8-3.5-2.3-5.3-7.7-13.2-11.7-13.2-11.7.4-.3,2.3-.7,2.3-.7,9.1,1,18.3,5.2,18.3,10.9ZM82.99,17.27c.5,2.4-.6,4-3,4.7-1.1.2-2.4-.3-4-1.6-6.8-6.3-15.4-8.5-15.4-8.5.3-.4,2.1-1.2,2.1-1.2,9.1-1,19,1.1,20.3,6.6Z"/>
</svg>