<?xml version="1.0" encoding="UTF-8"?>
<svg id="_レイヤー_1" data-name="レイヤー 1" xmlns="http://www.w3.org/2000/svg" version="1.1" viewBox="0 0 100 100">
  <defs>
    <style>
      .cls-1 {
        fill: #231815;
        stroke-width: 0px;
      }
    </style>
  </defs>
  <path class="cls-1" d="M42.11,24.92c-.3-3.6-1.7-6.9-6-6.8,0,0,1.9-3.2,4.8-3.6,4.9-.7,9.4,1.3,10,6.5.2,1.7.1,3.4,0,4.5,14-3.9,25.8-.5,31.6,10.6,6.1,11.6,2.4,25.1-2.4,34l1,1.1c4.6,3.7,7.4,7.4,7.4,10.1,0,3.2-1.6,4.7-4.8,4.2-1.6-.2-2.5-1.6-4-3.7-1-1.8-2.4-4.2-4-5.7-3.8,3.8-8.4,6.4-15.2,5.1-3.9-.9-7.3-2.8-10.1-5.3-2.1-1.7-3.2-4-3.2-6.8,0-2.4,1.1-4.5,3.1-6.2,3-2.2,6.9-2.7,11.9-1.8,4.2.8,8.1,2.4,11.7,4.9,3.6-8,3.6-19.2-.2-26.8-4.1-7.8-11.1-11.5-23.4-8.4-.7,6.8-3.6,14.5-7.1,24-.8,2.7-1.9,5.1-3.3,8.3l.7.9c.7.5,1.5,1.8,1.7,3.8.3,3.2-.5,4.3-2.8,5.2-1.8.3-3.2-.5-4.1-1.8-4.1,6.4-8,12.1-12.4,13.1-2.4.7-4.5.3-6.3-1.2-2.8-2-4.5-5.4-5-9.8-.6-5,0-10.4,2.2-15.5,2.2-5.3,5.3-10.2,8.9-14.5-2.3-8.7-3.8-15.3-6.5-20.1,1-.8,2.2-.8,3.5,0,4.9,2.4,8.3,7.1,9.8,13.2,2.6-2.7,7-5.5,12.1-7.7.3-1.5.4-2.9.4-3.8ZM24.91,49.72c-3.5,7.1-5.8,15-4.5,20.7,1.2,4.9,2.2,6.8,3.6,6.4,1.8-.3,4.5-3.8,8.2-10.4-3.1-4.8-5-11.4-7.3-16.7ZM31.21,42.12c1.6,5.7,2.9,11.8,4.9,15.8.1-.3.2-.8.6-1.7,3-8.2,5-16.4,5.2-22.2-3.4,1.7-7.4,4.5-10.7,8.1ZM60.41,66.42c-2.4-.6-4.6-.5-6.2.5-1.4.7-1.8,1.2-1.8,2.1,0,1,.4,1.8,1.8,2.9,1.4,1.2,3.1,2.1,5.1,2.5,5.1,1.1,8.7-.2,11.1-3.2-3.1-2.4-6.3-4-10-4.8Z"/>
</svg>