<?xml version="1.0" encoding="UTF-8"?>
<svg id="_レイヤー_1" data-name="レイヤー 1" xmlns="http://www.w3.org/2000/svg" version="1.1" viewBox="0 0 100 100">
  <defs>
    <style>
      .cls-1 {
        fill: #231815;
        stroke-width: 0px;
      }
    </style>
  </defs>
  <path class="cls-1" d="M71.3,43.68c6.9,4,10.6,9.5,10.6,16.6,0,8.4-3.7,14.8-11.2,19.3-7.2,3.7-20.9,8.5-33.4,5.9,23.2-3.9,36.3-14.5,36.3-25.4,0-4.5-1.8-8.6-5.2-11.6-4.3-3.8-8.9-4.8-11.9-4.4,0,0,2.3,7.7-4,16-3.4,4.4-7.8,8.5-7.8,8.5,0,0,.2.7.5,2.1.2,1.5-.2,3-1.7,4.6-.9.7-1.9,1.2-2.7,1.2-2.1-.1-3.5-1.3-3.5-3.2-4,3.2-8.1,4.9-12,4.9-4.9-.2-7.2-3.5-7.2-9.7,0-7.3,3.2-13.5,9.2-18.6,2.8-2.5,6.3-4.7,10-6.2.2-1.2.3-2.9.4-4.8l.2-3.2c-2.1.1-3.9.2-4.8.2-6.7,0-10.3-.5-12.3-8.1,0,0,2.9,2.2,10.7,2.2,1.4,0,3.9-.1,7.1-.4l.1-.6.1-1.6c.2-2,.2-3.6.2-4.7,0-2.3-.9-6-3.2-8.2,5.3-2.3,11.9,1.5,11.9,5.1,0,.7-.5,3-1.1,5.2-.3,1.5-.7,2.9-.9,3.7,1.2-.2,3.2-1,6-2.4.7-.2,1.4-.6,2.1-1.3,1.4-.8,2.7-1,3.9-1,1.4,0,2.8.1,4.1.6,1.2.8,2,1.7,2,2.8,0,1-1,2-2.6,2.8-4.8,2.6-10.4,4.3-16.5,5.2-.3,2.2-.6,4.5-.6,6.3,2.9-.8,6.5-1.4,9.9-1.6,0,0,9.3-.9,17.3,3.8ZM36.9,58.58c0-.4.1-1.9.1-4.2.1-2.5.1-5.1.1-5.5-.8.4-2.2,1.4-4.4,3.2-5.1,4.5-7.6,10.5-7.6,16.3,0,2.1.6,3,2,3.1,2.4,0,5.8-1.8,10-5.2-.1-3.4-.2-6-.2-7.7ZM43.6,46.18c-.1.4-.1,3.7-.1,7.7s0,6.7.1,7.3c2.3-2.5,4.7-5.5,7.5-10.7,2-3.3,2.1-6.4,2.1-6.4-2.9.1-6.3.7-9.6,2.1Z"/>
</svg>