<?xml version="1.0" encoding="UTF-8"?>
<svg id="_レイヤー_1" data-name="レイヤー 1" xmlns="http://www.w3.org/2000/svg" version="1.1" viewBox="0 0 100 100">
  <defs>
    <style>
      .cls-1 {
        fill: #231815;
        stroke-width: 0px;
      }
    </style>
  </defs>
  <path class="cls-1" d="M35.43,25.27c.2-6.6-3.7-7.8-3.7-7.8,0,0,2.3-4.7,8.3-2.4,3.6,1.4,5.8,3.9,5.4,8.3-.1,2-1.5,6.1-4,12.1.6,0,3.7-.4,6.2-.4,9.6-.4,11.8,6.3,11.2,16.8-1.7,15.7-5.8,27-12.8,33.9-3.8,4-7.6,4.9-10.7,2.4-3.2-2.4-5.1-9.8-7.7-15.5,0,0,8.4,6,10.3,6.2,1.6.4,2.8,0,3.7-.9,4.5-6,9.1-15.4,10.3-28,.6-5.5-1.1-9.4-5.1-9.1-2.9.1-5.7.8-8.1,1.5-3.9,10.1-10.1,21.7-16.6,30.7-6.3,10-10.6,14.9-12.6,14.7-2.9-.2-4.1-2.3-3.7-6,.1-2.4,2.1-4.5,4.6-7.5,4.5-5.5,7.7-9.4,14.1-19.9,2.7-4.8,5.4-9.2,5.9-10.8-2.1.5-6.5,1.4-10.6,2.6-1.6.5-3.1.7-4,.6-4.9,0-11.3-5.4-9.5-10.1,0,0,5.1,2,10.6,1.6,1.3,0,4.3-.2,9-.9l4.7-.6,2.3-.2c1.1-3.9,2.1-7.8,2.5-11.3ZM83.93,27.67c0,2.4-1.3,3.8-3.9,3.8-1.1,0-2.3-.8-3.5-2.3-5.3-7.7-13.2-11.7-13.2-11.7.4-.3,2.3-.7,2.3-.7,9.1,1,18.3,5.2,18.3,10.9ZM80.03,55.07c.8-6.6-8.1-14.9-15.2-16.4,0,0,14.5-8.3,24.8,11.6,1.8,3,2.6,7.2,2.2,10.5-.4,3.5-3.1,4.8-6.5,3.2-.3-.2-1-.5-1.6-1-.6-.4-1.5-.8-2.5-1.2-3.2-.9-10.9-.1-16-1.1,0,0,2.4-1.9,14.8-5.6ZM94.13,17.27c.5,2.4-.6,4-3,4.7-1.1.2-2.4-.3-4-1.6-6.8-6.3-15.4-8.5-15.4-8.5.3-.4,2.1-1.2,2.1-1.2,9.1-1,19,1.1,20.3,6.6Z"/>
</svg>