<?xml version="1.0" encoding="UTF-8"?>
<svg id="_レイヤー_1" data-name="レイヤー 1" xmlns="http://www.w3.org/2000/svg" version="1.1" viewBox="0 0 100 100">
  <defs>
    <style>
      .cls-1 {
        fill: #231815;
        stroke-width: 0px;
      }
    </style>
  </defs>
  <path class="cls-1" d="M19.4,36.5c4.6,3.1,13.3,1.7,21.3-.5,8-2.3,12.5-4.2,13.3-5.8.8-.9,1.7-1.4,2.5-1.5,1.5-.4,3.9.5,6.6,2.7,2,1.6,3.2,3,3.5,4.1.2,1.3-.2,2.5-1.5,3.6-2.9,2.3-12.3,11.2-27.5,25.6,1-.7,3.6-1.3,6.6-1.3,6,0,8.4,4,7.9,11.8-.4,5.4,2.9,8.2,8.7,8.5,8.4-.6,13.4-1.5,15.5-2.2.9-.2,1.6-.2,2.3-.2,2,0,3.7,1,5.2,3.1.7,1.3,1,2.5,1,3.4,0,2.6-2.5,4-6.9,4.2-4.4.1-10.4.2-17.8.2-10.7-.2-15-5.5-14.6-15.5.3-3.1,0-5.6-.9-6.6-.7-.8-1.8-.9-4-.2-3.5.5-7,2.6-10.5,6.5-2.4,2.2-5,5.3-7.6,9.4-1,1.4-2.1,2-3.3,2-2.6,0-4-2.1-4-6.1,0-2.5,1.1-4.6,3-6.3,5.9-4.5,19.8-18.4,37.2-38.9.4-.5-3.4,1-1.3.2-10.6,5.2-19.1,9.7-21.7,10.8-3.2,1.4-6.5.4-9.2-2.3-3.9-3.6-3.8-8.7-3.8-8.7ZM40.8,18.1c-3.4-1.6-6.7-5.4-7.5-10.3,0,0,3.9,2.7,12.5,4.7,2.1.9,4.7,1.3,8.1,2,5.2.8,7.7,3.4,6.8,7.3-.2,2.4-1.9,3.4-4.5,3.1-.6-.1-1.5-.5-2.5-.8-1.2-.5-2-.9-2.8-1-3.9-.7-9.9-1.4-17.6.7,0,0,6.5-5.5,7.5-5.7Z"/>
</svg>