<?xml version="1.0" encoding="UTF-8"?>
<svg id="_レイヤー_1" data-name="レイヤー 1" xmlns="http://www.w3.org/2000/svg" version="1.1" viewBox="0 0 100 100">
  <defs>
    <style>
      .cls-1 {
        fill: #231815;
        stroke-width: 0px;
      }
    </style>
  </defs>
  <path class="cls-1" d="M45.4,15.81c-.7-3.5-3.1-4.2-3.1-4.2,4.6-5,13.6-1.2,13.6,4.8,0,.1,0,.9-.1,2.1-.7,3-.9,6.1-1,9.9v3.6c1.6,1.5,4.2,2.1,8,1.9,2.1-.1,3.9-.7,6.1-1.9,1.3-.6,2.3-.8,3.1-.8,1.2,0,2.6.3,4,1.1,1.8.8,2.3,1.5,2.5,3.2.3,2.3-5,3.7-15.7,4.8-4.3.4-7.3-1.5-7.9-1.8l.6,26.9.4,2.3c9.5,2.9,16.2,5.5,19.3,8.1,3.4,2.5,5,4.8,5,6.9,0,2.8-1.5,4.5-4.3,4.5-1.1,0-2.4-.8-3.7-1.8-4.9-4.1-10.1-7.4-15.9-9.6v1.6c0,7.6-5.6,12-17,13.1-6,.6-11.2-.2-15.2-2.6-2.8-1.9-4.3-4.4-4.3-7.4,0-3.6,1.7-6.5,5-9.1,3.8-2.4,8.2-3.9,13.9-4.4,2.9-.4,6.2-.5,9-.4l-1.2-39.2c-.3-5.4-.6-9.2-1.1-11.6ZM37.3,73.51c-7.9.8-11.8,3-11.8,6.4,0,1.3.6,1.9,2.2,2.7,2.9,1.2,6.1,1.5,9.8,1.2,3.9-.6,6.9-1.6,8.2-3,1.5-1.1,2.1-3.4,2.1-6.8-3.8-.6-7.2-.9-10.5-.5Z"/>
</svg>