<?xml version="1.0" encoding="UTF-8"?>
<svg id="_レイヤー_1" data-name="レイヤー 1" xmlns="http://www.w3.org/2000/svg" version="1.1" viewBox="0 0 100 100">
  <defs>
    <style>
      .cls-1 {
        fill: #231815;
        stroke-width: 0px;
      }
    </style>
  </defs>
  <path class="cls-1" d="M75,42.52c8.2,4.8,12.5,11.2,12.5,19.6,0,9.9-4.3,17.4-13.2,22.7-8.4,4.3-24.5,10-39.3,6.9,27.3-4.5,42.8-17,42.8-29.9,0-5.3-2.1-10.1-6.1-13.6-5.1-4.5-10.5-5.6-14-5.2,0,0,2.6,9.1-4.8,18.8-4,5.2-9.1,10-9.1,10,0,.1.2.9.5,2.5.3,1.8-.2,3.6-1.9,5.4-1.1.9-2.3,1.4-3.2,1.4-2.5-.1-4.1-1.5-4.2-3.7-4.6,3.7-9.5,5.7-14.1,5.7-5.7-.2-8.4-4.1-8.4-11.4,0-8.5,3.7-15.9,10.8-21.9,3.3-2.9,7.4-5.5,11.7-7.2.3-1.5.4-3.4.5-5.7l.3-3.8c-2.5.2-4.6.3-5.7.3-7.9,0-12.1-.6-14.4-9.6,0,0,3.4,2.6,12.5,2.6,1.7,0,4.6-.1,8.4-.4l.1-.7.1-1.9c.2-2.4.3-4.2.3-5.5,0-2.8-1.1-7.1-3.8-9.7,6.2-2.7,14,1.8,14,6,0,.8-.6,3.5-1.3,6.1-.4,1.8-.8,3.4-1.1,4.4,1.4-.3,3.8-1.2,7.1-2.8.8-.3,1.6-.8,2.5-1.6,1.6-.9,3.2-1.2,4.6-1.2,1.6,0,3.3.2,4.8.8,1.4.9,2.3,1.9,2.3,3.2,0,1.2-1.1,2.4-3,3.3-5.7,3.1-12.3,5.1-19.4,6.1-.4,2.6-.7,5.4-.8,7.5,3.5-1,7.7-1.7,11.7-1.9,0,0,10.9-1.1,20.3,4.4ZM34.6,60.12c0-.5.1-2.2.1-4.9.1-3,.1-6.1.1-6.5-.9.5-2.6,1.6-5.2,3.7-6,5.3-8.9,12.4-8.9,19.2,0,2.5.7,3.5,2.3,3.7,2.9,0,6.9-2.1,11.8-6.1-.1-4.1-.2-7.1-.2-9.1ZM42.5,45.52c-.1.5-.1,4.3-.1,9s0,7.9.1,8.6c2.7-2.9,5.5-6.4,8.8-12.5,2.3-3.9,2.5-7.6,2.5-7.6-3.4.2-7.5.8-11.3,2.5Z"/>
</svg>