<?xml version="1.0" encoding="UTF-8"?>
<svg id="_レイヤー_1" data-name="レイヤー 1" xmlns="http://www.w3.org/2000/svg" version="1.1" viewBox="0 0 100 100">
  <defs>
    <style>
      .cls-1 {
        fill: #231815;
        stroke-width: 0px;
      }
    </style>
  </defs>
  <path class="cls-1" d="M15.24,51.35c2.1-.6,4.7-2.5,9.6-6.2,5.2-3.9,8.1-6.1,10.4-8.9,1.4-1.6,3.1-2.5,5.1-2.5,2.3-.1,5.5,2,9.8,6.2,6.5,6.6,14.3,13.1,23.5,19.6,5.4,3.6,9.4,6.3,12.3,7.7,3.7,2,5.7,4.6,5.8,8,.2,2.7-.8,4.2-2.9,4.4-1.9,0-4.4-1-7.9-3.2-5.8-3.8-11.8-8.5-18.3-14.3-8.1-7.3-15-14-20.3-20.1-1.3-.9-2.2-1.4-2.6-1.4-.6.1-7.9,5.8-15.1,14.7-1.8,2.1-3.9,4.5-4.3,5.2-1.8,1.9-3.4,2.6-4.7,2.2-3.4-.7-6.1-4.3-7.4-10.6,0,0,3.5.3,7-.8ZM83.34,30.95c0,5.8-4.7,10.5-10.5,10.5s-10.6-4.7-10.6-10.5,4.8-10.6,10.6-10.6,10.5,4.8,10.5,10.6ZM79.34,30.95c0-3.6-2.9-6.5-6.5-6.5s-6.5,2.9-6.5,6.5,2.9,6.5,6.5,6.5,6.5-2.9,6.5-6.5Z"/>
</svg>