<?xml version="1.0" encoding="UTF-8"?>
<svg id="_レイヤー_1" data-name="レイヤー 1" xmlns="http://www.w3.org/2000/svg" version="1.1" viewBox="0 0 100 100">
  <defs>
    <style>
      .cls-1 {
        fill: #231815;
        stroke-width: 0px;
      }
    </style>
  </defs>
  <path class="cls-1" d="M24,38.5c3.9,2.7,11.3,1.5,18.1-.4,6.8-2,10.6-3.6,11.3-4.9.7-.8,1.4-1.2,2.1-1.3,1.3-.3,3.3.4,5.6,2.3,1.7,1.3,2.8,2.5,3,3.5.2,1.1-.2,2.1-1.3,3-2.4,2-10.4,9.6-23.3,21.8.8-.6,3-1.1,5.6-1.1,5.1,0,7.1,3.4,6.7,10-.4,4.6,2.5,7,7.4,7.2,7.1-.5,11.4-1.2,13.2-1.8.7-.2,1.3-.2,1.9-.2,1.7,0,3.2.9,4.4,2.6.6,1.1.9,2.2.9,2.9,0,2.2-2.1,3.4-5.9,3.6-3.7.1-8.8.2-15.1.2-9.1-.2-12.8-4.7-12.4-13.2.2-2.6,0-4.8-.8-5.6-.6-.7-1.5-.8-3.4-.2-3,.4-5.9,2.2-8.9,5.5-2.1,1.9-4.3,4.5-6.5,8-.8,1.2-1.8,1.7-2.8,1.7-2.2,0-3.4-1.8-3.4-5.2,0-2.1,1-3.9,2.6-5.3,5-3.8,16.8-15.7,31.6-33.1.3-.4-2.9.9-1.1.2-9,4.4-16.2,8.2-18.5,9.2-2.7,1.2-5.5.3-7.8-2-3.3-3-3.2-7.4-3.2-7.4ZM42.2,22.9c-2.9-1.4-5.7-4.6-6.4-8.8,0,0,3.3,2.3,10.6,4,1.8.8,4,1.1,6.9,1.7,4.4.7,6.6,2.9,5.8,6.2-.2,2.1-1.6,2.9-3.8,2.7-.5-.1-1.3-.5-2.2-.7-1-.4-1.7-.8-2.3-.9-3.3-.6-8.4-1.2-15,.6,0,0,5.5-4.6,6.4-4.8Z"/>
</svg>