<?xml version="1.0" encoding="UTF-8"?>
<svg id="_レイヤー_1" data-name="レイヤー 1" xmlns="http://www.w3.org/2000/svg" version="1.1" viewBox="0 0 100 100">
  <defs>
    <style>
      .cls-1 {
        fill: #231815;
        stroke-width: 0px;
      }
    </style>
  </defs>
  <path class="cls-1" d="M53.1,44.54c0-3.8-.1-8-.5-11.6-8.2,1.9-15.3,8.5-20.3,19.1-2.4,5.1-3.4,10.3-3.5,14.8,0,3.6-.8,5.5-2.3,5.5-1.2,0-2.7-1-4-2.8-3.3-5.2-5-11.6-5-19.4,0-4.5.5-9.9,1.6-16.2.5-1.6.6-2.8.6-3.9,0-3-2-5.2-2-5.2,4-3.2,10.3,1,10.3,4.6,0,.8-.4,2.6-1.2,5.3-2,5.9-3.7,11.5-3.7,16,0,2.3.2,4.4.6,5.7,7.5-15.7,17.1-25.3,28.6-28.2-.3-5.3-2.1-9.3-6.4-10.5,4.3-3.9,11.6-2.9,12.6,2,1,4.9.7,1.9,1,7.3.5-.1,1-.1,1.3-.1,4,0,7.8.9,11.1,2.6,7,3.5,10.6,8.9,10.6,16.3,0,6.6-2.2,12-6.3,16-4.6,4.6-10.7,7.3-18,7.3-1.5,0-2.5-.1-2.8-.2-2.9,6.4-10.4,12.7-22.1,15.4-2.2.5-4.3.4-5.4-.2,0,0,15.6-5.1,21.4-17.2-8.5-5.5-11.1-12.6-10-14.1,0,0,6.7,7.7,11.9,8.8,1.3-3.3,1.9-9,1.9-17.1ZM74.7,45.64c0-4.4-1.7-7.7-5-10.2-2.8-1.8-6-2.9-9.7-3.3.2,1.6.2,5.7.2,11.5,0,9.7-.8,16.2-2.9,20.2,5.6.6,10.5-2.3,14-6.3,2.2-2.9,3.4-7.6,3.4-11.9Z"/>
</svg>