<?xml version="1.0" encoding="UTF-8"?>
<svg id="_レイヤー_1" data-name="レイヤー 1" xmlns="http://www.w3.org/2000/svg" version="1.1" viewBox="0 0 100 100">
  <defs>
    <style>
      .cls-1 {
        fill: #231815;
        stroke-width: 0px;
      }
    </style>
  </defs>
  <path class="cls-1" d="M46.34,22.78c0-3.5.1-5.7-.8-7.7-.7-1.6-3.2-3.6-3.2-3.6,0,0,1.7-2.4,4.8-2.4,5.8,0,8.9,2.8,8.9,7.2,0,.1-.3,1.1-.5,2.6-.3,3.4-.6,4.9-.7,6.8h.5c10.7-1.2,17.2-1.7,22.6-1.7,2.4,0,4.7.1,6.8,1.9,1.8,1.2,2.9,3,2.9,4.3,0,1.6-1.6,3-4.2,3-.9,0-2.1-.1-3.4-.5-4.6-.7-9.2-1.2-16-1.2-3.8,0-7.2.1-9.7.3-.6,5.6-.7,12.2-.9,17.3,3.1,4.3,4.6,9.2,5.1,14.9.8,17.9-5.2,29-26.2,32.9-3.3.6-5.3-.4-5.3-.4,0,0,24.1-8,22.8-26.5-.1,1.5-2.7,3.4-6.5,4.5-5.2.6-9.2-1.8-11.3-7.2-.7-1.8-1.2-4-1.3-6.6,0-4.3.9-8.2,3-11.6,2.5-3.5,5.5-5.7,8.8-6.5,2.1-.3,3.5,1.3,3.5,1.3.5-2.7.2-7.2.2-11.5-8.8.9-18.8,2.6-29.2,4.9-1.8.2-3,.3-3.8.3-4.6,0-9.4-4.9-7.3-10.6,0,0,2.3,2.1,9.8,2.1.9,0,3.6,0,10.1-.8.2,0,7.2-.5,20.5-1.7v-3.8ZM42.54,48.78c-1.8.3-2.7,1-3.8,2.6-1.4,2.1-2.4,5.6-1.8,9.3.9,6.6,3.7,8.4,7.5,7.6,1.6-.4,2.6-1.4,3.2-3.7,1.1-2.3,1.3-5.3.4-9.2-1.2-5.4-2.7-7.1-5.5-6.6ZM81.85,17.48c0,2.3-1.3,3.6-3.9,3.6-1.1,0-2.3-.8-3.5-2.2-5.3-7.3-13.2-11.2-13.2-11.2.4-.3,2.3-.6,2.3-.6,9.1.9,18.3,4.9,18.3,10.4ZM94.45,9.48c.5,2.2-.6,3.8-3,4.4-1.1.2-2.4-.2-4-1.5-6.8-6-15.4-8.1-15.4-8.1.3-.4,2.1-1.1,2.1-1.1,9.1-1,19,1,20.3,6.3Z"/>
</svg>