<?xml version="1.0" encoding="UTF-8"?>
<svg id="_レイヤー_1" data-name="レイヤー 1" xmlns="http://www.w3.org/2000/svg" version="1.1" viewBox="0 0 100 100">
  <defs>
    <style>
      .cls-1 {
        fill: #231815;
        stroke-width: 0px;
      }
    </style>
  </defs>
  <path class="cls-1" d="M17.8,76.18c-1.3.1-2.8-.1-4-.8-3-1.5-4.5-4.7-4.5-9.1-.2-6.5,2.7-12.2,8.8-16.6,4.2-3.4,9.5-5.2,16.2-5.9,2.2-5.9,5.8-13.9,7.9-25.6-4.3,2.5-8.8,4.1-10.7,5.3-1.3.5-2.5.6-3.3.6-4,0-8.3-7.5-4.7-12.8,2.4,2.2,5,3,6.7,3,3.1,0,6.4-.5,9.9-1.7,1.7-.2,3.1-.6,3.9-1.2,1.3-.9,2.1-1.2,3.1-1.2,1.3,0,2.5,1,3.4,2.7,1.9,2.7,2.9,4.7,2.9,6.5,0,1.3-.8,2.3-2,2.9-.9.3-3.3,3.4-6.8,11.1-3.3,7.2-4.1,10.5-4.1,10.5,8.7-.3,16.8,1.2,24.6,4.2.8-2,1.1-4.2,1.1-6.4-.1-6.1-1.6-9.9-1.6-9.9,8.3-.1,11.2,3.7,10.9,9.9-.1,3.1-.9,6.5-2.2,10.1,6,3.1,11,5.7,14.2,8,2.1,1.5,3.2,3.7,3.2,6.2,0,3.1-1.3,4.9-4,5.1-1.1,0-2.7-.7-4.7-2.5-3.1-2.5-7.2-6-11.9-9.2-5.9,14-16.5,24-31.7,30.1-2.3.6-3.9.4-5.1-.6,0,0,21.6-12.2,29.4-33.7-7.7-3.9-15.4-5.8-23.9-5.6-6.8,18.3-14.1,26-21,26.6ZM16.4,65.08c0,1.6.3,2.5,1.1,3.2q.2.3.4.2c4.1-.4,9.7-6.3,14.4-18.5-3.7.3-6.9,1.5-9.5,3.5-4.2,3.4-6.4,7.8-6.4,11.6Z"/>
</svg>